<?xml version="1.0" encoding="utf-8"?>
<!-- Generator: Adobe Illustrator 23.0.6, SVG Export Plug-In . SVG Version: 6.00 Build 0)  -->
<svg version="1.1" id="Layer_1" xmlns="http://www.w3.org/2000/svg" xmlns:xlink="http://www.w3.org/1999/xlink" x="0px" y="0px"
	 viewBox="0 0 454.9 153.2" style="enable-background:new 0 0 454.9 153.2;" xml:space="preserve">
<style type="text/css">
	.st0{fill:#3FBED4;}
	.st1{opacity:0.6;fill:#A28ABA;enable-background:new    ;}
</style>
<title>Asset 1</title>
<g>
	<g id="Object">
		<path class="st0" d="M24.3,16.8v121.6h403.8V16.8H24.3z M50.1,29H38.9c-1,0-1.9-0.8-1.9-1.9c0-1,0.8-1.9,1.9-1.9c0,0,0,0,0,0h11.2
			c1,0,1.9,0.8,1.9,1.9C52,28.2,51.1,29,50.1,29z M73.6,29H62.4c-1,0-1.9-0.8-1.9-1.9c0-1,0.8-1.9,1.9-1.9h11.2c1,0,1.9,0.8,1.9,1.9
			C75.5,28.2,74.7,29,73.6,29C73.6,29,73.6,29,73.6,29z M98.7,29H87.5c-1,0-1.9-0.8-1.9-1.9c0-1,0.8-1.9,1.9-1.9h11.2
			c1,0,1.9,0.8,1.9,1.9C100.6,28.2,99.8,29,98.7,29C98.7,29,98.7,29,98.7,29z M122.2,29H111c-1,0-1.9-0.8-1.9-1.9
			c0-1,0.8-1.9,1.9-1.9c0,0,0,0,0,0h11.2c1,0,1.9,0.8,1.9,1.9C124.1,28.2,123.3,29,122.2,29L122.2,29z M147.3,29h-11.2
			c-1,0-1.9-0.8-1.9-1.9c0-1,0.8-1.9,1.9-1.9h11.2c1,0,1.9,0.8,1.9,1.9S148.4,29,147.3,29C147.3,29,147.3,29,147.3,29L147.3,29z
			 M170.9,29h-11.2c-1,0-1.9-0.8-1.9-1.9c0-1,0.8-1.9,1.9-1.9h11.2c1,0,1.9,0.8,1.9,1.9C172.7,28.2,171.9,29,170.9,29z M196,29
			h-11.3c-1,0-1.9-0.8-1.9-1.9s0.8-1.9,1.9-1.9c0,0,0,0,0,0H196c1,0,1.9,0.8,1.9,1.9S197,29,196,29C196,29,196,29,196,29z M219.5,29
			h-11.3c-1,0-1.9-0.8-1.9-1.9c0-1,0.8-1.9,1.9-1.9h11.2c1,0,1.9,0.8,1.9,1.9S220.5,29,219.5,29C219.5,29,219.5,29,219.5,29
			L219.5,29z M243.8,29h-11.3c-1,0-1.9-0.8-1.9-1.9s0.8-1.9,1.9-1.9c0,0,0,0,0,0h11.2c1,0,1.9,0.8,1.9,1.9S244.7,29,243.8,29
			C243.7,29,243.7,29,243.8,29L243.8,29z M267.3,29H256c-1,0-1.9-0.8-1.9-1.9c0-1,0.8-1.9,1.9-1.9h11.2c1,0,1.9,0.8,1.9,1.9
			C269.1,28.2,268.3,29,267.3,29C267.2,29,267.2,29,267.3,29L267.3,29z M292.4,29h-11.3c-1,0-1.9-0.8-1.9-1.9c0-1,0.8-1.9,1.9-1.9
			h11.2c1,0,1.9,0.8,1.9,1.9C294.2,28.2,293.3,29,292.4,29C292.3,29,292.3,29,292.4,29L292.4,29z M315.9,29h-11.3
			c-1,0-1.9-0.8-1.9-1.9c0-1,0.8-1.9,1.9-1.9h11.2c1,0,1.9,0.8,1.9,1.9C317.7,28.2,316.9,29,315.9,29C315.8,29,315.8,29,315.9,29
			L315.9,29z M341,29h-11.3c-1,0-1.9-0.8-1.9-1.9c0-1,0.8-1.9,1.9-1.9h11.2c1,0,1.9,0.8,1.9,1.9C342.8,28.2,342,29,341,29
			C340.9,29,340.9,29,341,29L341,29z M364.5,29h-11.3c-1,0-1.9-0.8-1.9-1.9c0-1,0.8-1.9,1.9-1.9h11.2c1,0,1.9,0.8,1.9,1.9
			C366.3,28.2,365.5,29,364.5,29C364.4,29,364.4,29,364.5,29L364.5,29z M389.6,29h-11.3c-1,0-1.9-0.8-1.9-1.9c0-1,0.8-1.9,1.9-1.9
			h11.2c1,0,1.9,0.8,1.9,1.9C391.4,28.2,390.6,29,389.6,29C389.5,29,389.5,29,389.6,29L389.6,29z M413.1,29h-11.3
			c-1,0-1.9-0.8-1.9-1.9c0-1,0.8-1.9,1.9-1.9H413c1,0,1.9,0.8,1.9,1.9C414.9,28.2,414.1,29,413.1,29C413.1,29,413.1,29,413.1,29
			L413.1,29z"/>
		<path class="st1" d="M413.7,111.7l15.7-14.4l1.7-1.6c0.4-0.4,0.9-0.8,1.4-1.1c0.5-0.4,1-0.6,1.5-0.8c0.5-0.2,1.1-0.3,1.7-0.2
			c0.7,0.4,2.3,2.7,1,0.3c1.5,2.5,1.4,4,0.9,0.6c0.6,3.4,0.2,3.9,0.5,0.5c-0.4,3.4-0.7,3.6,0.5,0.5c-1.2,3.1-1.3,3.2,0.5,0.5
			c-1.8,2.7-1.8,2.7,0.6,0.6c-2.4,2.1-2.2,1.9,0.6,0.6c-2.9,1.4-2.5,1.1,0.7,0.6c-3.2,0.6-1.1,0,1.6,1.4c-2.4-1.2-4.2-1.2-0.9-0.9
			c-3.3-0.3,1.5,1.6,1.8,2.1s0.2,0.6,0,0.4s-4-2.9-1-2c-2.9-0.9,0.6,2,0.7,2.5s0,0.6,0,0.4s-1.3-2.1,0-2c-1.4-0.1-0.1,1.8-0.1,2.2
			s0,0.3,0.1-0.1s-1.5-2.6,0.1-2.4c-1.6-0.2-0.1,1.9-0.1,2.4s0,0.5,0,0.2s-0.3-1.5,0.4-2.1c-0.7,0.6-0.4,1.8-0.5,2.2
			c-0.2,0.8,0,0.2,1-1.7c-1.5,2.8-1.1,2.6-0.1-0.6c-1,3.2-1.1,3.2,0.4,0.3c-1.5,2.9-1.4,2.9,0.4,0.1c-1.8,2.8-1.7,2.7,0.4,0.2
			c-2.1,2.6-1.9,2.5,0.4,0.2c-2.4,2.3-2.3,2.2,0.3,0.1c-2.5,2.1-2.3,1.9,0.5,0.2c-2.8,1.6-2.8,1.7,0,0c-2.8,1.7-2.5,1.5,0.4,0.2
			c-2.9,1.3-2.8,1.2,0.1,0c-3,1.2-2.7,0.9,0.3,0.1c-3,0.8-2.7,0.5,0.4,0.2c-3.1,0.4-3.2,0.5-0.3-0.4c-2.9,0.9-2.5,0.5,0.6,0.6
			c-3.1-0.1-3.1-0.1,0-0.4c-3,0.3-2.6-0.2,0.8,0.7c-3.4-0.9-3.3-0.9,0.1-0.4c-3.4-0.6-3.2-0.8,0.7,0.6c-3.9-1.4-2.5-1.2,0.8,0.3
			c-3.2-1.5,0.5-0.2,0.8,0.2c0.1-0.4,0.5,0.2,0.8,0.2l0.8,0.2c0.8,0.2,1.5,0.5,2.3,0.7l-16.7,13c-3.2,2.4-6.2,5-9,7.8
			c-2.4,2.6-4.5,5.5-6.9,8.1c-2.4,2.5-5.1,4.9-7.8,7.1l-3.6,3c-0.6,0.5-1.2,1-1.8,1.5s-1.2,1-1.8,1.5c-0.7,0.4-1.3,0.9-1.8,1.5
			c-0.7,0.3-1.4,0.9-1.8,1.5c-0.7,0.3-1.4,0.8-1.8,1.5c-0.8,0.3-1.4,0.8-1.8,1.5c-0.8,0.3-2.3,0.4-1.8,1.5c-1.1-0.9-2.2-1.8-0.9-0.5
			c-1.5-1.4-1.9-1.9-0.9-0.6c-1.1-1.4-1.2-1.6-1-0.6c-0.2-1-0.3-1.1-0.8-0.6c0.5-0.5,0.1-0.4-1.6-1c1.6,0.5,1.5,0.5,0-0.3
			c1.5,0.8,0.1,0.4-1.5-0.5c1.4,0.8,2.4,1.1,1,0c1.4,1-0.3,0.4-1.5-0.1c1,0.5,2.1,0.9,0.9-0.2c1.1,1.1-0.6,0.5-1.3,0.1
			c0.5,0.2,0.4-0.2,0.4-1c0,0.8-0.2,1-0.6,0.7c0.3,0.1,0.2-0.4,0.3-1.1c-0.1,0.7-0.1,1-0.3,0.8c0.2,0.1,0.1-0.4,0.2-1
			c-0.1,0.6,0,0.9-0.1,0.6c0.1-0.1,0-0.8-0.1-1.4c0.2,0.4,0.2,0.9,0.1,1.4c0,0.2-0.1,0,0-0.6c-0.1,0.6,0,0.7,0,0.4
			c0-0.6-0.2-1.1-0.4-1.6c0.2,0.4,0.3,0.9,0.3,1.4c0,0.2-0.2,0.1-0.2-0.5c0.1,0.6,0.2,0.6,0.2,0.3c0-0.6-0.1-1.1-0.4-1.6
			c0.3,0.5,0.4,1,0.4,1.5c0,0.3-0.2,0.3-0.3-0.3c0.2,1.2,0.5-0.5-0.3-1.6c0.7,1,0.5,2.4,0,1.3c0.5,1.1,0.6-0.9-0.1-1.9
			c0.7,0.8,0.5,2.4-0.2,1.5c0.7,0.9,0.8-0.9,0.2-1.7c0.7,0.8,0.6,2.8,0,1.8c0.6,1,0.6-1.2,0-2.1c0.6,0.6,0.5,2.1-0.5,1.6
			c0.9,0.6,1-1.1,0.5-1.7c0.6,0.7,0.7,2.9,0,2c0.7,0.9,0.6-1.4,0-2.1c0.5,0.5,0.4,2-0.6,1.6c1,0.4,1.2-1.4,0.8-1.9
			c0.6,0.5,0.6,2.5-0.3,1.9c0.9,0.6,0.9-1.4,0.3-2c0.4,0.5,0.2,2.2-0.8,1.9c1,0.4,1.2-1.1,0.7-1.6c0.6,0.7,0.6,3-0.1,2.1
			c0.7,0.8,0.7-1.4,0.1-2.1c0.5,0.5,0.3,1.9-0.7,1.6c1,0.3,1.1-1.5,0.6-2c0.3,0.5,0.2,1.2-0.3,1.5c-0.2,0.1-0.4,0.2-0.6,0.2
			c1.1,0,1.3-1.4,1-1.9c0.4,0.3,0,1-1.2,1.4c1.1-0.4,1.6-1.1,1.3-1.4c0.3,0.4,0,1.6-1.1,1.8c1.1-0.2,1.6-1.3,1.3-1.8
			c0.5,0.4,0.2,1.6-0.9,1.7c1,0.2,1.2-0.9,0.9-1.5c0.5,0.3,0.3,0.2-0.2,0c0.1,0.7-0.3,1.3-1,1.4c-0.1,0-0.1,0-0.2,0
			c1.1-0.3,1.4-1.3,1-1.6c0.1,0.2-0.6,0.5-1.6,1.1c1.1-0.6,1.6-0.9,1.4-1.1c0.1,0.2-0.5,0.6-1.5,1.1c1-0.6,1.6-1,1.4-1.1
			c0.1,0.2-0.4,0.4-1.5,1c1-0.6,1.6-0.9,1.4-1.1c0.1,0.1-0.6,0.2-1.7,0.7c1.1-0.5,1.8-0.6,1.7-0.7c0.1,0.2-0.4,0.4-1.5,1
			c1-0.6,1.6-0.8,1.5-1c0,0.1-0.6,0.1-1.7,0.5c1.1-0.4,1.8-0.5,1.7-0.5c0.1,0.1-0.5,0.4-1.5,1c1-0.6,1.5-0.8,1.4-0.9
			c0,0-0.7,0.2-1.8,0.6c1.1-0.4,1.7-0.5,1.6-0.6s-0.5,0.1-1.7,0.3c0.5-0.1,1.1-0.2,1.6-0.4c0,0-0.6,0.1-1.8,0.2
			c1.1-0.2,1.6-0.2,1.5-0.3c-0.6-0.1-1.2-0.2-1.8-0.3c2.2,0.3,1.3,0.4-0.4-0.7c1.8,1.1,0.6,1.1-0.4-0.8c1,1.8-0.8,0.8-0.8-1.2
			c-0.3,1.7-0.7,0-0.9-1.1c-0.3,0.6-0.7-0.6-1.2-0.8c0.5-0.6,1-1.2,1.5-1.8c3.9-4,9.9-7.4,14-11
			C403.8,120.8,408.8,116.2,413.7,111.7z"/>
		<path class="st1" d="M30.6,18.1L46.3,3.8L48,2.2c0.4-0.4,0.9-0.8,1.4-1.1c0.5-0.3,1-0.6,1.5-0.8C51.4,0,52-0.1,52.5,0
			c0.7,0.4,2.3,2.7,1,0.3c1.5,2.5,1.4,4,0.9,0.6c0.6,3.4,0.2,3.9,0.5,0.5c-0.3,3.4-0.7,3.6,0.5,0.5c-1.2,3.1-1.3,3.2,0.5,0.5
			c-1.8,2.7-1.8,2.7,0.6,0.6c-2.4,2.1-2.2,1.9,0.7,0.6c-2.9,1.4-2.5,1.1,0.7,0.5c-3.2,0.6-1.1,0,1.6,1.4c-2.4-1.2-4.2-1.2-0.9-0.9
			c-3.3-0.3,1.5,1.6,1.8,2.1s0.2,0.6,0,0.4s-4-2.9-1-2c-2.9-0.9,0.6,2,0.7,2.5c0.1,0.5,0,0.6,0,0.4s-1.4-2.1,0-2
			c-1.3-0.1-0.1,1.8-0.1,2.2s0,0.3,0.1-0.1s-1.5-2.6,0.1-2.4C58.5,5.4,60,7.6,60,8s0,0.5,0,0.2s-0.3-1.5,0.4-2.1
			c-0.7,0.6-0.4,1.8-0.5,2.2c-0.2,0.8,0,0.2,1-1.7c-1.5,2.8-1.1,2.6-0.1-0.6c-1,3.2-1.1,3.2,0.4,0.3c-1.5,2.9-1.4,2.9,0.4,0.1
			c-1.8,2.8-1.7,2.7,0.3,0.2c-2.1,2.6-1.9,2.5,0.4,0.2C60,9.1,60.1,9.1,62.7,7c-2.5,2.1-2.3,1.9,0.5,0.2c-2.8,1.6-2.8,1.7-0.1,0
			c-2.8,1.7-2.5,1.5,0.4,0.2c-2.9,1.3-2.8,1.2,0.1,0c-3,1.1-2.7,0.9,0.3,0.1c-3,0.8-2.7,0.5,0.4,0.2c-3.1,0.4-3.2,0.5-0.3-0.4
			c-2.9,0.9-2.5,0.5,0.6,0.6c-3.1-0.1-3.1-0.1,0-0.4c-3,0.3-2.6-0.2,0.8,0.7c-3.4-0.9-3.3-0.9,0.1-0.4c-3.4-0.6-3.2-0.8,0.7,0.6
			c-3.8-1.4-2.5-1.2,0.8,0.3c-3.2-1.5,0.5-0.2,0.8,0.2c0.1-0.4,0.5,0.2,0.8,0.2l0.8,0.2c0.8,0.2,1.6,0.5,2.3,0.7L55,23.1
			c-3.2,2.4-6.2,5-9,7.8c-2.4,2.6-4.5,5.5-6.9,8.1c-2.4,2.5-5.1,4.9-7.8,7.1c-1.2,1-2.4,2-3.6,3c-0.6,0.5-1.2,1-1.8,1.5
			s-1.2,1-1.8,1.5c-0.7,0.4-1.3,0.9-1.8,1.5c-0.7,0.3-1.4,0.9-1.8,1.5c-0.7,0.3-1.4,0.8-1.8,1.5c-0.8,0.3-1.4,0.8-1.8,1.5
			c-0.8,0.3-2.3,0.4-1.8,1.5c-1.1-0.8-2.2-1.8-0.9-0.5c-1.5-1.4-1.9-1.9-0.9-0.6c-1.1-1.4-1.2-1.6-0.9-0.6c-0.3-1-0.3-1-0.8-0.6
			c0.5-0.5,0.1-0.4-1.6-1c1.6,0.5,1.5,0.5-0.1-0.3c1.5,0.8,0.1,0.3-1.4-0.5c1.4,0.8,2.4,1.1,0.9,0c1.4,1-0.3,0.4-1.4-0.2
			c1,0.5,2.1,0.9,0.9-0.2c1.1,1.1-0.6,0.5-1.3,0.1c0.5,0.2,0.4-0.2,0.4-1c0,0.8-0.2,1-0.6,0.7c0.3,0.1,0.2-0.4,0.3-1.1
			c-0.2,0.7-0.1,1-0.3,0.8c0.2,0.1,0.1-0.4,0.2-1c-0.1,0.7,0,0.8-0.1,0.6c0.1-0.1,0-0.8-0.1-1.5c0.2,0.4,0.2,0.9,0.1,1.4
			c0,0.2-0.1,0,0-0.6c-0.1,0.7,0,0.7,0,0.4c0-0.5-0.1-1.1-0.3-1.6c0.2,0.4,0.3,0.9,0.3,1.4c0,0.2-0.2,0.2-0.2-0.5
			C7.1,54,7.2,54,7.2,53.6c0-0.6-0.1-1.1-0.4-1.6c0.3,0.5,0.4,1,0.4,1.5c0,0.3-0.2,0.3-0.3-0.3c0.2,1.2,0.5-0.5-0.3-1.7
			c0.7,1,0.5,2.4,0,1.3C7.1,54,7.2,52,6.5,51.1c0.7,0.8,0.6,2.4-0.2,1.5c0.7,0.9,0.8-0.9,0.2-1.7c0.7,0.8,0.6,2.8,0,1.8
			c0.6,1,0.6-1.2,0-2c0.6,0.6,0.5,2.1-0.4,1.6c0.9,0.6,1-1.1,0.5-1.7c0.6,0.7,0.7,2.9,0,2c0.7,0.9,0.6-1.4,0-2.1
			C7.1,50.9,7,52.4,6,52c1,0.4,1.2-1.4,0.8-1.9c0.6,0.5,0.6,2.5-0.3,1.9c0.9,0.5,0.9-1.4,0.3-2c0.4,0.5,0.2,2.2-0.8,1.9
			c1,0.3,1.2-1.1,0.7-1.6c0.6,0.7,0.6,3-0.1,2.1c0.7,0.8,0.7-1.4,0.1-2.1c0.5,0.5,0.3,1.9-0.7,1.6c1,0.3,1.1-1.5,0.7-2
			c0.3,0.5,0.2,1.2-0.3,1.5c-0.2,0.1-0.4,0.2-0.6,0.2c1.1,0,1.3-1.5,1-1.9c0.4,0.3-0.1,1-1.2,1.4c1.1-0.4,1.6-1.1,1.3-1.4
			c0.3,0.4,0,1.6-1.1,1.8c1.1-0.2,1.6-1.3,1.3-1.8c0.5,0.4,0.2,1.6-0.9,1.7c1,0.2,1.2-0.9,0.9-1.5c0.5,0.2,0.3,0.2-0.2,0
			c0.1,0.7-0.3,1.3-1,1.4c-0.1,0-0.1,0-0.2,0c1.1-0.3,1.4-1.3,1-1.6c0.2,0.2-0.6,0.5-1.6,1.1c1.1-0.6,1.6-0.9,1.4-1.1
			c0.1,0.2-0.5,0.6-1.5,1.2c1-0.6,1.6-1,1.4-1.1c0.2,0.2-0.4,0.4-1.5,1c1-0.6,1.6-0.9,1.4-1.1c-0.5,0.3-1.1,0.5-1.7,0.7
			c1.1-0.5,1.7-0.6,1.7-0.7c0.1,0.2-0.4,0.4-1.5,1c1.1-0.6,1.6-0.8,1.5-1c0.1,0-0.6,0.1-1.7,0.5C5.4,49.5,6,49.4,6,49.3
			c0.1,0.2-0.4,0.4-1.5,1c1-0.5,1.6-0.8,1.4-0.9c0,0.1-0.7,0.2-1.7,0.6c1.1-0.4,1.7-0.5,1.6-0.6s-0.5,0-1.7,0.3
			c0.5-0.1,1.1-0.2,1.6-0.3c0,0-0.6,0.1-1.8,0.2c1.1-0.2,1.6-0.2,1.5-0.3c-0.6-0.1-1.2-0.2-1.8-0.3c2.2,0.3,1.3,0.4-0.4-0.7
			c1.8,1.1,0.6,1.1-0.4-0.8c1,1.8-0.8,0.8-0.8-1.2c-0.3,1.7-0.7,0-0.9-1.1c-0.3,0.6-0.7-0.6-1.2-0.8c0.5-0.6,1-1.2,1.5-1.8
			c3.9-4,9.9-7.5,14-11C20.6,27.2,25.6,22.7,30.6,18.1z"/>
	</g>
</g>
</svg>
