<?xml version="1.0" encoding="utf-8"?>
<!-- Generator: Adobe Illustrator 23.0.6, SVG Export Plug-In . SVG Version: 6.00 Build 0)  -->
<svg version="1.1" id="Layer_1" xmlns="http://www.w3.org/2000/svg" xmlns:xlink="http://www.w3.org/1999/xlink" x="0px" y="0px"
	 viewBox="0 0 159 159" style="enable-background:new 0 0 159 159;" xml:space="preserve">
<style type="text/css">
	.st0{fill-rule:evenodd;clip-rule:evenodd;fill:#0ABAD4;}
	.st1{fill-rule:evenodd;clip-rule:evenodd;fill:#F3E0E6;}
	.st2{fill-rule:evenodd;clip-rule:evenodd;fill:#078DA1;}
	.st3{fill-rule:evenodd;clip-rule:evenodd;fill:#FFFFFE;}
</style>
<title>Group</title>
<desc>Created with Sketch.</desc>
<g id="Page-1">
	<g id="Artboard" transform="translate(-119.000000, -96.000000)">
		<g id="Group" transform="translate(119.000000, 96.000000)">
			<path id="Fill-25" class="st0" d="M79.1,0C35.4,0,0,35.4,0,79.1c0,43.7,35.4,79.1,79.1,79.1s79.1-35.4,79.1-79.1
				C158.1,35.4,122.7,0,79.1,0"/>
			<path id="Fill-26" class="st1" d="M79.1,158.1C79,158.1,79,158.1,79.1,158.1C79,158.1,79,158.1,79.1,158.1
				c43.7,0,79.1-35.4,79.1-79.1C158.1,122.7,122.7,158.1,79.1,158.1 M158.1,79.1c0,0,0-0.1,0-0.1C158.1,79,158.1,79,158.1,79.1"/>
			<path id="Fill-27" class="st2" d="M79.1,158.1C79,158.1,79,158.1,79.1,158.1c-2,0-4-0.1-5.9-0.2c-18-17.8-34.1-33.8-34.5-34.3
				c-3.3-4.3,0.8-13.1,5.7-17c3-2.4,6.7-3.7,10.5-3.7c1.4,0,2.8,0.2,4.1,0.5c0.2,0.1,3.2,1.5,3.8,1.5c0,0,0,0,0,0
				c1-0.1,3.1-2.4,4.2-3c2.1-1.2,6.6-1.6,8.3-2.9c2.1-1.6-0.4-2.9-2.4-4.8c-1.7-1.7-34.2-34.2-37.7-37.7c-3.2-3.2-8.1-6.4-3.2-9.7
				c5.3-3.6,12.6-5.6,19.7-5.6c5.2,0,10.3,1.1,14.4,3.5c5.3,3,9.9,8.6,14.1,12.9c1.1-10.8,13.5-16.3,22.6-18.7
				c4.7-1.2,9.5-1.9,14.3-2.3c2.8-0.3,6.7-1,10.3-1c2.1,0,4,0.3,5.4,1c1.3,0.7,10.3,9.6,22.5,21.7c1.8,6.5,2.7,13.3,2.8,20.3v0
				c0,0,0,0,0,0.1c0,0,0,0,0,0.1c0,0,0,0,0,0.1c0,0,0,0.1,0,0.1c0,0,0,0,0,0c0,0,0,0.1,0,0.1C158.1,122.7,122.7,158.1,79.1,158.1"/>
			<path id="Fill-28" class="st3" d="M55.3,57.3c5.1,1.9,11.9,5.4,16.4,9.2c-0.1,0.2-0.2,0.3-0.3,0.4c-1.4,1.7-3.5,2.5-6.1,2.5
				c-2.2,0-4.8-0.6-7.4-1.7c-4.7-2-6.1-4.3-8-7.9c-0.9-1.7-2-3.6-3.6-5.6c-1-1.3-4-3.6-7.2-5.3c3.6-1.4,8.5-2.8,13.7-2.8
				c2.8,0,5.4,0.4,7.7,1.2c7.8,2.7,10.5,8.5,11.4,11.7c0.2,0.7,0.3,1.3,0.4,1.9c-6.3-4.5-13.8-7.5-15.3-8c-1.2-0.5-2.6,0.2-3.1,1.4
				C53.4,55.5,54,56.8,55.3,57.3z M88.2,51.8c5.2-5.6,14.7-8.1,19.9-9.1c5.8-1.1,12.1-1.7,19.6-1.9c-3.7,6.7-14.4,22.4-25.1,26.7
				c-1.8,0.7-3.6,1.1-5.5,1.1h0c-2.4,0-4.7-0.6-6.6-1.7c7.3-6.2,17.2-13.8,24.8-16.1c1.3-0.4,2-1.7,1.6-3c-0.4-1.3-1.7-2-3-1.6
				c-8.5,2.7-19.4,11-27,17.6c-0.4-0.5-0.8-1.1-1-1.7C84.3,58.6,85.2,55,88.2,51.8z M104.5,108.1c-1.6,0-3.1,0.2-4.5,0.7
				c-3.5-5.7-10.5-9.7-18.7-10.1V75.1c1-0.9,2.9-2.7,5.3-4.9c2.9,2,6.6,3.2,10.4,3.2h0c2.5,0,4.9-0.5,7.3-1.4
				c14.5-5.7,30.1-30.4,29.4-34c-0.2-1.2-1.2-2-2.5-2c-9.5,0.1-17.1,0.8-24,2.1c-5.8,1.1-16.3,3.9-22.5,10.5
				c-4.4,4.7-5.6,10.3-3.4,15.3c0.5,1.1,1.1,2.1,1.8,3c-1.1,1-2,1.8-2.8,2.6c-0.7-1.6-1.9-3.1-3.2-4.5c0.3-2.2,0.1-4.7-0.6-7.3
				c-1.9-7-7.2-12.4-14.4-14.9c-2.9-1-6-1.5-9.3-1.5c-11.5,0-21.8,6.1-22.2,6.4l0,0l0,0l0,0c-1.1,0.7-1.5,2.2-0.8,3.3
				c0.7,1.1,2.1,1.5,3.2,0.9l0.1,0c2.4,0,8.2,3.8,9.4,5.3c1.4,1.8,2.3,3.5,3.2,5.1c2.1,3.8,4.1,7.3,10.4,9.9
				c2.2,0.9,5.7,2.1,9.3,2.1c4.1,0,7.4-1.4,9.8-4.2c0.9,1.3,1.5,2.6,1.4,3.9l0,0l0,0v24.8c-5.4,0.7-10.2,2.9-13.6,6.1
				c-2.4-1.3-5.1-2.1-8.1-2.1c-9.6,0-17.5,8.2-17.5,18.4c0,0.3,0,0.6,0,1h83.1C119.1,114.2,112.5,108.1,104.5,108.1L104.5,108.1z"/>
		</g>
	</g>
</g>
</svg>
