<?xml version="1.0" encoding="utf-8"?>
<!-- Generator: Adobe Illustrator 23.0.6, SVG Export Plug-In . SVG Version: 6.00 Build 0)  -->
<svg version="1.1" id="Layer_1" xmlns="http://www.w3.org/2000/svg" xmlns:xlink="http://www.w3.org/1999/xlink" x="0px" y="0px"
	 viewBox="0 0 159 160" style="enable-background:new 0 0 159 160;" xml:space="preserve">
<style type="text/css">
	.st0{fill-rule:evenodd;clip-rule:evenodd;fill:#81D40A;}
	.st1{fill-rule:evenodd;clip-rule:evenodd;fill:#CFE4ED;}
	.st2{fill-rule:evenodd;clip-rule:evenodd;fill:#61942F;}
	.st3{fill-rule:evenodd;clip-rule:evenodd;fill:#FFFFFE;}
</style>
<title>Group</title>
<desc>Created with Sketch.</desc>
<g id="Page-2">
	<g id="Artboard" transform="translate(-75.000000, -354.000000)">
		<g id="Group" transform="translate(75.336000, 354.938000)">
			<path id="Fill-4" class="st0" d="M79.1,0C35.4,0,0,35.4,0,79.1c0,43.7,35.4,79.1,79.1,79.1s79.1-35.4,79.1-79.1
				C158.1,35.4,122.7,0,79.1,0"/>
			<path id="Fill-5" class="st1" d="M79.1,158.1L79.1,158.1c1.1,0,2.2,0,3.3-0.1C81.3,158.1,80.2,158.1,79.1,158.1 M128,141.2
				c18.4-14.5,30.2-36.9,30.2-62.1c0-0.3,0-0.7,0-1c0,0.3,0,0.7,0,1C158.1,104.2,146.3,126.7,128,141.2"/>
			<path id="Fill-6" class="st2" d="M79.1,158.1L79.1,158.1c0,0-0.1,0-0.1,0c0,0,0,0,0,0c-5.8,0-11.4-0.7-16.8-1.8
				c-3.4-3.4-5.7-5.7-6.3-6.3c-4.4-4.4-8.9-7.2-8.9-13.7c0-2.9,0.6-6.2-0.7-8.6c-1.1-2.1-4.1-4.1-5.8-5.8
				c-4.3-4.3-9.6-8.5-13.2-13.3c-3-4.1-3.4-10.1-4.4-15c-1.6-7.9-7.4-33.8-7.8-38.7c-0.4-4.9,2.2-8.1,7-8.9c0.5-0.1,1-0.1,1.5-0.1
				c3.7,0,6,2.5,8.6,5.1C49,67.8,66,84.3,83,101c1.6-4.8,2.2-4.3-1.1-7.7c-1.4-1.4-10-10-12.9-12.9c-5.7-5.7-13.7-11.6-17.9-18.4
				c-2.3-3.7-1.7-8.3-3.6-12c-0.9-1.8-2.6-2.8-3.9-4.4c-4-5.1,2.5-6.1,7.8-6.1c1.9,0,3.6,0.1,4.6,0.2C66.9,41,73.2,50.1,80.6,57.2
				c-1.7-8.8,4.9-16.6,12.9-18.9c3.5-1,7.6-1,10.8-2.7c2.7-1.4,3-4.1,5.1-5.7c0.4-0.3,0.8-0.4,1.3-0.4c4.4,0,13,10.9,15.8,13.7
				c0.8,0.8,2.4,3.2,3.5,3.5c0.2,0.1,0.4,0.1,0.6,0.1c0.6,0,1.4-0.2,2.2-0.3c0.8-0.2,1.6-0.3,2.4-0.3c0.4,0,0.7,0,1,0.1
				c3.7,0.9,6,3.9,8.5,6.5c1,1,5.5,5.4,12,11.7c0.8,4.4,1.3,9,1.4,13.7c0,0.3,0,0.7,0,1c0,25.2-11.8,47.6-30.2,62.1
				c-12.6,10-28.4,16.2-45.6,16.9C81.3,158.1,80.2,158.1,79.1,158.1"/>
			<path id="Fill-7" class="st3" d="M70.6,137.8H51.8v-14.3c0-0.7-0.3-1.4-0.9-1.9l-18.6-14.7c-1.4-1.1-2.4-2.7-2.8-4.5l-9.7-48.6
				c-0.3-1.3,0.6-2.6,1.9-2.8l1.9-0.4c1.3-0.3,2.6,0.6,2.8,1.9l7.9,39.3c0.1,0.7,0.6,1.3,1.2,1.6l21.4,12.1c0.5,0.3,1.1,0.4,1.6,0.4
				c1.2,0,2.4-0.7,2.9-1.8c0.6-1.1,0.5-2.4-0.3-3.4L47.3,81.6c-0.4-0.5-0.5-1.2-0.4-1.8c0.1-0.6,0.4-1.2,1-1.6l1.6-1.1
				c1-0.8,2.6-0.5,3.4,0.5l14.9,20.5c2,2.8,3.1,6,3.1,9.4V137.8z M56.6,74.8c-1.4-1.9-3.5-3-5.8-3c-1.5,0-3,0.5-4.2,1.4L45,74.3
				c-1.6,1.1-2.6,2.8-2.9,4.7c-0.3,1.9,0.2,3.8,1.3,5.4l9.8,13.5l-14.4-8.1l-7.7-38.2c-0.7-3.4-3.7-5.8-7.1-5.8
				c-0.5,0-0.9,0-1.4,0.1l-1.9,0.4c-3.9,0.8-6.4,4.6-5.7,8.5l9.7,48.6c0.6,2.9,2.2,5.5,4.5,7.3l17.7,14v15.5c0,1.3,1.1,2.4,2.4,2.4
				H73c1.3,0,2.4-1.1,2.4-2.4v-32.7c0-4.4-1.4-8.7-4-12.2L56.6,74.8L56.6,74.8z"/>
			<path id="Fill-8" class="st3" d="M137.6,53.8l-9.7,48.6c-0.4,1.8-1.3,3.4-2.8,4.5l-18.6,14.7c-0.6,0.5-0.9,1.1-0.9,1.9v14.3H86.8
				v-30.3c0-3.4,1.1-6.7,3.1-9.4l14.9-20.5c0.7-1,2.3-1.3,3.4-0.5l1.6,1.1c0.5,0.4,0.9,0.9,1,1.6c0.1,0.6,0,1.3-0.4,1.8l-13.9,19.2
				c-0.7,1-0.8,2.3-0.3,3.4c0.6,1.1,1.7,1.8,2.9,1.8c0.6,0,1.1-0.2,1.6-0.4L122,93.4c0.6-0.3,1-0.9,1.2-1.6l7.9-39.3
				c0.3-1.3,1.5-2.1,2.8-1.9l1.9,0.4C137,51.3,137.9,52.5,137.6,53.8z M136.7,46.3l-1.9-0.4c-0.5-0.1-0.9-0.1-1.4-0.1
				c-3.4,0-6.4,2.4-7.1,5.8l-7.7,38.2l-14.4,8.1l9.8-13.5c1.1-1.6,1.6-3.5,1.3-5.4c-0.3-1.9-1.3-3.6-2.9-4.7l-1.6-1.1
				c-1.2-0.9-2.7-1.4-4.2-1.4c-2.3,0-4.5,1.1-5.8,3L85.9,95.2c-2.6,3.6-4,7.8-4,12.2v32.7c0,1.3,1.1,2.4,2.4,2.4h23.7
				c1.3,0,2.4-1.1,2.4-2.4v-15.5l17.7-14c2.3-1.8,3.9-4.4,4.5-7.3l9.7-48.6C143.1,50.9,140.6,47.1,136.7,46.3L136.7,46.3z"/>
			<path id="Fill-9" class="st3" d="M89.6,45.4c2-1.9,5.3-2.6,8.8-3.3c3.7-0.7,8-1.6,11.2-4.3c0.5,7.1,0,18.5-7.6,24
				c-2.2,1.6-4.5,2.4-6.9,2.4c-2.5,0-4.9-0.9-6.7-2.5c3.6-4.8,8.3-9.6,14.6-13.5c0.9-0.6,1.2-1.7,0.6-2.7c-0.6-0.9-1.7-1.2-2.7-0.6
				c-6.4,4-11.3,8.8-15,13.6c-0.1-0.2-0.2-0.3-0.2-0.5C84.2,53.8,85.6,49.2,89.6,45.4z M68.4,57.3c-2.6-3.2-5.8-5.8-9.8-7.3
				c-1-0.4-2.1,0.1-2.5,1.1c-0.4,1,0.1,2.1,1.1,2.5c4,1.5,7.1,4.4,9.5,7.9c-1.2,1.6-2.9,2.5-4.7,2.5c-2.1,0-4.2-1.2-6.2-3.4
				c-1.4-1.6-2-4.3-2.6-7.2c-0.6-2.9-1.3-6.2-3.1-8.8c0.8-0.1,1.6-0.1,2.5-0.1c4.6,0,10.7,1,14,6C68.1,52.6,68.7,55,68.4,57.3z
				 M95.1,69c3.3,0,6.7-1.1,9.7-3.2c14.1-10,9-34,8.7-35c-0.2-1.1-1.1-1.8-2.2-1.9c-1.1-0.1-2.1,0.6-2.4,1.7
				c-1.5,4.6-5.3,5.7-11.4,6.9c-4,0.8-8.2,1.6-11.2,4.5c-5.5,5.2-7.4,11.8-5,17.8c0.4,1.1,1,2.1,1.7,3c-2.9,4.5-4.8,8.8-6.1,12.3
				c-1-3.7-2.6-8.3-5-12.6c2.3-4.6,1.9-10-1.2-14.7c-3.5-5.3-9.8-8.1-18-8.1c-4.9,0-8.8,1-9,1.1c-1,0.3-1.8,1.2-1.8,2.2
				c0,1.1,0.6,2,1.6,2.4c3.2,1.1,4,4.2,5.1,9.1c0.7,3.4,1.4,6.9,3.7,9.4c3.7,4.2,7.4,5,9.8,5c2.7,0,5.2-1.1,7.2-3
				c4.2,8.2,5.3,17.3,5.4,17.5c0.1,0.9,0.9,1.7,1.9,1.7h0c0.9,0,1.7-0.7,1.9-1.6c0-0.1,1.5-8.4,7.3-17.7C88.4,67.7,91.7,69,95.1,69
				L95.1,69z"/>
		</g>
	</g>
</g>
</svg>
