<svg xmlns="http://www.w3.org/2000/svg" viewBox="0 0 206.36 225.59"><defs><style>.cls-1{fill:#93d435;}.cls-2{fill:#ededee;}.cls-3{fill:#f4829d;}.cls-4{opacity:0.5;}.cls-5{fill:#f0e195;}</style></defs><title>GreenPostIt</title><g id="Layer_2" data-name="Layer 2"><g id="Object"><path class="cls-1" d="M0,34.59c-2.09-9.06,193.74-7.87,193.74-7.87s-1.3,90.51,12.6,194.35L1.64,225.42C3.77,165.85,4.71,54.94,0,34.59Z"/><rect class="cls-2" x="3.29" y="152.47" width="195.61" height="0.97" transform="translate(-2.37 1.6) rotate(-0.89)"/><rect class="cls-2" x="3" y="166.74" width="197.18" height="0.97" transform="translate(-2.6 1.6) rotate(-0.89)"/><rect class="cls-2" x="2.76" y="181.01" width="198.79" height="0.97" transform="translate(-2.82 1.62) rotate(-0.89)"/><rect class="cls-2" x="2.45" y="195.27" width="200.61" height="0.97" transform="translate(-3.04 1.63) rotate(-0.89)"/><rect class="cls-2" x="2.04" y="210.62" width="202.78" height="0.97" transform="translate(-3.27 1.63) rotate(-0.89)"/><path class="cls-3" d="M28.57,29.9h-1c0,1.75,1.33,178.16,7.91,195.69l.91-.34C29.9,207.85,28.57,31.65,28.57,29.9Z"/><g class="cls-4"><path class="cls-5" d="M31.24,10C30.81,8.91,26.82,5.69,27,6.62s-2.74,3.74-2.74,3.74L20.86,7.61s-2.69,5.32-3.26,4.47S12,8.92,12,8.92c4.81,24.07-.73,50.35-.73,50.35s4.39-5.1,5.09-4.35,1,4.28,1,4.28c1.51-.9,6-4.61,6-4.61l3.12,3.67s2-4.12,2.53-4.48,3.07,2.09,3.07,2.09c6.78-16.44,2.67-49.94,2.67-49.94S31.68,11.15,31.24,10Z"/></g><g class="cls-4"><path class="cls-5" d="M176.21,4.1C175.78,3,171.79-.25,172,.68s-2.74,3.75-2.74,3.75l-3.4-2.75s-2.7,5.31-3.27,4.47S157,3,157,3c4.81,24.07-.73,50.34-.73,50.34s4.39-5.1,5.09-4.34,1,4.28,1,4.28c1.51-.9,6-4.61,6-4.61l3.12,3.67s2-4.13,2.53-4.49,3.07,2.1,3.07,2.1C183.82,33.5,179.71,0,179.71,0S176.65,5.22,176.21,4.1Z"/></g></g></g></svg>