<svg xmlns="http://www.w3.org/2000/svg" viewBox="0 0 1200 220.27"><title>Asset 2</title><g id="Layer_2" data-name="Layer 2"><g id="_ÎÓÈ_2" data-name="—ÎÓÈ_2"><path d="M706.59,220.27H1a1,1,0,0,1,0-2H705.41a123.91,123.91,0,0,0,30.49-3.43A136.61,136.61,0,0,0,758,207.09a189.08,189.08,0,0,1,23.28-8.49,182.78,182.78,0,0,1,25.12-5.37,1.46,1.46,0,0,0,1.13-.55,1.16,1.16,0,0,0,.17-.62s0-.07,0-.11c1.15-11.13,1.85-22.37,2.08-33.41.24-11.77.56-70.92-16.63-80a34.45,34.45,0,0,0-5.65-2.26c-8.6-2.61-16.8-1.67-18.67-.66l.38.23a16.83,16.83,0,0,1,2.76,2,18.4,18.4,0,0,1,5.82,10.37c1,8-10.37,15.86-17.28,19.27-7.54,3.73-14.85,4.78-20.72,5.63-6.93,1-11.94,1.72-14.05,5.93a15.62,15.62,0,0,0-1.19,3.91c-.3,1.44-.55,2.68-1.75,2.64-1.66-.08-2.57-4.61-2.7-13.49-.16-10.94-.37-24.56,9-35.66,1.81-2.16,11.51-12.87,24.07-11.85,4.75.39,11.36,2.68,11.41,6,0,2.08-2.2,3-5.59,4.28a52.59,52.59,0,0,0-9.12,4.34,42.9,42.9,0,0,0-9.23,7.77c.87-.79,1.82-1.59,2.84-2.41a81.76,81.76,0,0,1,23-12.4,43.5,43.5,0,0,1,4.6-1.54c7.13-1.7,13-.15,16.82.88,2.41.64,4.31,1.15,4.88.46,1-1.25-.58-5.23-4.82-11.82-2.51-3.91-3.89-6.06-6.17-7.44-3.86-2.32-7.77-.81-12.3.93-3.85,1.49-8.21,3.17-13.06,2.46-15.75-2.33-24.28-27.75-25-31.5-.09-.42-.24-1.2.43-1.6a1,1,0,0,1,.78-.11c.47.12.65.44,1,1.12a21.28,21.28,0,0,0,7.45,8c3.9,2.39,8,3,12.37,3.62a32.52,32.52,0,0,0,6.89.39,16.61,16.61,0,0,1,4.91.37A27.85,27.85,0,0,1,775,40.61a30.1,30.1,0,0,1-3.6-6.43c-3.6-9-1.39-17.47-.27-20.7,2.18-6.3,6.69-12.2,9.27-13.28a1.87,1.87,0,0,1,1.6,0c1.2.57.92,1.89.55,3.73a29.42,29.42,0,0,0-.73,5.93c-.07,5.52,1.76,9.05,3.37,12.15,1.7,3.26,3.29,6.33,2.35,10.79a17.49,17.49,0,0,1-1.88,4.82c-1,1.86-1.73,3.34-1.35,5.83.19,1.26.59,2.29,2.63,5.91,3.15,5.6,5.89,9.72,6.2,10.18a49.15,49.15,0,0,1,6.68,16.18c.53,2,1.18,4.61,1.77,4.63h0c.41,0,1.08-1.43,1.62-2.58a27.7,27.7,0,0,1,3-5.28c4.72-6.19,13.13-9.52,25-9.89,13.39-.44,24.7,5.42,31.37,9.36-.45-.34-.93-.69-1.43-1-7.38-5.19-24.34-13.77-35.77-9.15l-.27.11c-1.22.51-3.07,1.27-4.27.22a2.59,2.59,0,0,1-.78-1.86c-.19-2.9,2.59-8.77,5.94-12.56,6.09-6.88,17-10.3,26.43-8.31,14.2,3,21,16.73,26.42,27.78,4.8,9.73,8.36,22.49,7.19,25.77a1.79,1.79,0,0,1-.92,1.09c-1.13.51-2.06-.44-3-1.45-.4-.4-.81-.82-1.25-1.19-4.37-3.65-10.79-1.61-18.91,1s-17.55,5.58-27.62,3.48c-8-1.69-17.25-6.64-18.51-13.55-.72-3.95,1.27-7.63,2.72-10.33.58-1.07,1.37-2.54,1.28-3-.66-.37-4.76,1.39-8.07,4.57-1,.93-5.8,5.94-5.44,12.72a13,13,0,0,0,.69,3.63c2.49,7.48,7.43,31.69,8.05,48.89.3,8.43.8,47.25.58,51a2.55,2.55,0,0,0,.39,1.68,2.28,2.28,0,0,0,1.27.77,90.17,90.17,0,0,1,32.39,7.66,95.52,95.52,0,0,1,11.09,6,83.17,83.17,0,0,0,10.88,5.79,85.36,85.36,0,0,0,33.91,6.63H1199a1,1,0,0,1,0,2H905.58a87.11,87.11,0,0,1-34.7-6.8,84.66,84.66,0,0,1-11.12-5.91,93.06,93.06,0,0,0-10.88-5.84,88.25,88.25,0,0,0-31.78-7.5.63.63,0,0,1-.19,0,4.3,4.3,0,0,1-2.47-1.53,4.36,4.36,0,0,1-.78-3c.21-3.76-.28-42.43-.59-50.85-.61-17-5.49-40.95-7.94-48.3a15.69,15.69,0,0,1-.8-4.18c-.4-7.65,5-13.23,6-14.27,2.71-2.61,8.69-6.6,10.88-4.51,1.26,1.21.29,3-.94,5.28-1.39,2.57-3.11,5.76-2.52,9,1.05,5.73,9.33,10.35,17,12,9.55,2,18.61-.88,26.6-3.43,8.37-2.66,15.59-5,20.8-.61.52.44,1,.91,1.4,1.33.23.24.53.54.76.75.45-2.58-2.18-13.68-7.2-23.87-5.25-10.67-11.8-23.94-25-26.71-8.8-1.85-18.89,1.31-24.52,7.68-4.18,4.73-6.07,10.87-5.33,11.59.21.13.94-.05,2.18-.56l.28-.12c12.23-4.94,30,4,37.67,9.36,7.9,5.55,7,6.91,6.76,7.35-.73,1.16-1.88.46-5-1.42-5.89-3.6-18.14-11.06-32.82-10.61-11.24.35-19.14,3.42-23.47,9.1a26,26,0,0,0-2.81,4.93c-1,2.11-1.77,3.83-3.52,3.72-2.07-.08-2.69-2.49-3.62-6.14a47,47,0,0,0-6.41-15.56c-.31-.46-3.1-4.65-6.29-10.31-2.05-3.65-2.61-4.95-2.86-6.59-.47-3.14.56-5.13,1.56-7.05a16.28,16.28,0,0,0,1.7-4.31c.79-3.76-.52-6.28-2.17-9.45s-3.68-7.08-3.6-13.11a31.49,31.49,0,0,1,.77-6.3c.09-.44.19-.92.24-1.28-1.62,1-5.62,5.61-7.81,11.92-1,3-3.11,11,.23,19.3a33.29,33.29,0,0,0,6.53,9.88c1.3,1.46,2.08,2.34,1.26,3.19s-1.72.11-3.2-1.15c-2.36-2-6.76-5.72-13-7.07a15.23,15.23,0,0,0-4.42-.32,35.13,35.13,0,0,1-7.25-.41c-4.56-.67-8.87-1.29-13.12-3.89a22.14,22.14,0,0,1-5-4.16c3.21,8.3,10.64,22.94,21.62,24.57,4.31.64,8.24-.88,12-2.34,4.81-1.86,9.36-3.61,14.05-.78,2.68,1.61,4.24,4,6.82,8.07,3.47,5.4,7,11.4,4.68,14.18-1.39,1.67-3.72,1-6.94.19-3.88-1-9.2-2.45-15.83-.86A41.52,41.52,0,0,0,767.2,74a79.71,79.71,0,0,0-22.45,12.09,58.92,58.92,0,0,0-10,10.11c-.82,1-1,1.3-1.52,1.36a1.08,1.08,0,0,1-.76-.23,1.13,1.13,0,0,1-.38-.9c.08-1.23,5.45-12,16.72-19a54.7,54.7,0,0,1,9.44-4.5c2.13-.84,4.34-1.7,4.32-2.39,0-1.25-4.4-3.6-9.57-4-11.59-1-20.68,9.12-22.38,11.15-8.87,10.53-8.67,23.73-8.51,34.34a72.15,72.15,0,0,0,.71,9.46,14.71,14.71,0,0,1,1.14-3.39c2.58-5.14,8.3-6,15.55-7,6-.87,12.87-1.86,20.12-5.44,7-3.44,17-10.87,16.19-17.22a16.53,16.53,0,0,0-5.16-9.13,15.56,15.56,0,0,0-2.47-1.77c-.87-.52-1.77-1.07-1.61-2.13a2,2,0,0,1,1-1.39c2.63-1.66,11.69-2.34,20.48.33a35.69,35.69,0,0,1,6,2.41c17.76,9.4,18,65,17.68,81.82-.22,11.08-.92,22.36-2.08,33.53a3.19,3.19,0,0,1-.49,1.66,3.37,3.37,0,0,1-2.62,1.45,180,180,0,0,0-24.75,5.3,188.54,188.54,0,0,0-23.06,8.41,137.75,137.75,0,0,1-22.45,7.85A125.31,125.31,0,0,1,706.59,220.27Z"/></g></g></svg>