<svg xmlns="http://www.w3.org/2000/svg" viewBox="0 0 21.33 68.89"><defs><style>.cls-1{fill:#d0d1d3;}</style></defs><title>Asset 2</title><g id="Layer_2" data-name="Layer 2"><g id="Object"><path class="cls-1" d="M.13,22.92V49.38c0,5.55-1.18,13,3.63,17,7,5.88,16.52.8,17.26-7.68.66-7.67.05-15.64.05-23.33,0-8.94.56-18.08,0-27C20.62,1.09,10.5-3.16,5.51,2.88,4,4.7,3.81,6.85,3.77,9.09c-.08,4.22,0,8.44,0,12.65,0,8.73-.41,17.56,0,26.28.41,8.9,13.47,8.19,14.16-.37.71-8.79,0-17.9,0-26.73a1.23,1.23,0,0,0-2.46,0V42.14a36.19,36.19,0,0,1,0,5.89c-.89,5.23-8.83,5.22-9.22-.13-.49-6.7,0-13.62,0-20.34,0-6.42-.51-13.07,0-19.47C6.69,2.42,14.62.46,17.78,5.44c.94,1.49.83,2.62.83,4.28V55.1c0,3.21.08,6.82-2.42,9.23-3,2.84-8.5,2.53-11.32-.3C1.05,60.22,2.59,51,2.59,46.28V22.92a1.23,1.23,0,0,0-2.46,0Z"/></g></g></svg>