<?xml version="1.0" encoding="utf-8"?>
<!-- Generator: Adobe Illustrator 23.0.6, SVG Export Plug-In . SVG Version: 6.00 Build 0)  -->
<svg version="1.1" id="Layer_1" xmlns="http://www.w3.org/2000/svg" xmlns:xlink="http://www.w3.org/1999/xlink" x="0px" y="0px"
	 viewBox="0 0 159 160" style="enable-background:new 0 0 159 160;" xml:space="preserve">
<style type="text/css">
	.st0{fill-rule:evenodd;clip-rule:evenodd;fill:#8B00B5;}
	.st1{fill-rule:evenodd;clip-rule:evenodd;fill:#612572;}
	.st2{fill-rule:evenodd;clip-rule:evenodd;fill:#FFFFFE;}
</style>
<title>Group</title>
<desc>Created with Sketch.</desc>
<g id="Page-2">
	<g id="Artboard" transform="translate(-305.000000, -354.000000)">
		<g id="Group" transform="translate(305.744000, 354.938000)">
			<path id="Fill-10" class="st0" d="M79.1,0C35.4,0,0,35.4,0,79.1c0,43.7,35.4,79.1,79.1,79.1s79.1-35.4,79.1-79.1
				C158.1,35.4,122.7,0,79.1,0"/>
			<path id="Fill-11" class="st1" d="M83.8,157.9c-16-16-46.4-46.4-52-52c-4.3-4.3-9.8-8.3-6.3-15c1.6-3,3.9-4.4,6.7-4.4
				c1,0,2,0.2,3.1,0.5c0.5,0.2,4.1,2.2,4.6,2.2c0,0,0,0,0.1,0c-2.1-1-2.6-3.5-4.7-4.2c1.7-2.9,4.3-5.2,7.3-6.6
				c2.8-1.3,6.8-0.6,8.9-2c2.9-2,4.1-5,7.7-6.4c1.4-0.6,5.3-0.6,5.9-1.3c1.7-2.1-0.4-6.9-1.7-8.5c-1.8-2.3-4.4-4.4-6.5-6.5
				c-3.2-3.2-16-13.4-13.3-17.5c1.2-1.9,3.2-2.6,5.5-2.6c5.2,0,11.9,3.8,14.4,6.1c2.1,1.9,4,4,6,6c1.4-4.3,6.6-7,11.2-7
				c1.6,0,3.1,0.3,4.5,1c1.6,0.8,2.8,2.5,4,3.7c1.8,1.8,3.7,3.7,5.5,5.5c2.8,2.9,37.9,38.1,58.1,58.2
				C142.1,135.5,115.5,156.1,83.8,157.9"/>
			<path id="Fill-12" class="st2" d="M116.8,122.2l-11.4-8.5c-0.4-0.3-0.9-0.5-1.4-0.5c-0.2,0-0.4,0-0.6,0.1l-22.9,6.1
				c-1.7,0.5-3.6,0.3-5.2-0.5L30.4,97.6c-0.6-0.3-1-0.8-1.2-1.4C29,95.6,29,95,29.3,94.4l0.8-1.7c0.5-1.2,2-1.7,3.2-1.1l36.2,17.2
				c0.6,0.3,1.4,0.3,2,0l22.5-9.9c1.4-0.6,2.2-2.1,1.9-3.7c-0.3-1.5-1.6-2.6-3.2-2.6l-23.7-0.3c-1.3,0-2.4-1.1-2.4-2.4l0-1.9
				c0-1.3,1.1-2.4,2.4-2.4l25.3,0.3c3.4,0,6.6,1.1,9.4,3.2l24.3,18.1L116.8,122.2z M132.9,104.7l-26.2-19.6
				c-3.5-2.6-7.8-4.1-12.2-4.1l-25.3-0.3h-0.1c-3.9,0-7.2,3.2-7.2,7.1l0,1.9c-0.1,4,3.1,7.3,7.1,7.3l16.7,0.2l-15.2,6.7L35.4,87.2
				c-1-0.5-2-0.7-3.1-0.7c-2.8,0-5.3,1.6-6.5,4.1l-0.8,1.7C24.1,94,24,96,24.7,97.8c0.6,1.8,2,3.3,3.7,4.1l44.7,21.3
				c2.6,1.3,5.7,1.5,8.5,0.8l21.8-5.8l12.4,9.3c0.4,0.3,0.9,0.5,1.4,0.5c0.1,0,0.2,0,0.3,0c0.6-0.1,1.2-0.4,1.6-0.9l14.2-19
				C134.2,107,134,105.5,132.9,104.7L132.9,104.7z"/>
			<path id="Fill-13" class="st2" d="M70.3,101.6H71l5.9-2.6L69,98.9c-2.4,0-4.7-1-6.4-2.8c-1.7-1.8-2.6-4.1-2.6-6.5l0-1.9
				c0.1-5,4.2-9,9.1-9L94.6,79c1.8,0,3.5,0.3,5.2,0.7c-2.9-3.4-7.2-5.5-12-5.5c-3.4,0-6.5,1.1-9,2.8c-1.9-3.4-5-6-8.7-7.2V51.2
				c0-1.3-1.1-2.4-2.4-2.4c-1.3,0-2.4,1.1-2.4,2.4V69l-0.2,0c-6,0-11.2,3.3-13.9,8.2c-0.6-0.1-1.3-0.1-2-0.1c-5.9,0-11,3.2-13.7,8
				c0.3,0.1,0.6,0.2,0.9,0.4L70.3,101.6"/>
			<path id="Fill-14" class="st2" d="M52.6,47c5.5,2.1,11.1,1.4,14-1.3c-0.3-4-4.1-8.2-9.6-10.3c-5.5-2.1-11.1-1.4-14,1.3
				C43.4,40.8,47.1,45,52.6,47"/>
			<path id="Fill-15" class="st2" d="M79.6,48.1c4.1-1.4,6.9-4.4,7.2-7.3c-2.1-2.1-6.1-2.7-10.2-1.3c-4.1,1.4-6.9,4.4-7.2,7.3
				C71.5,48.9,75.5,49.5,79.6,48.1"/>
		</g>
	</g>
</g>
</svg>
