<svg xmlns="http://www.w3.org/2000/svg" xmlns:xlink="http://www.w3.org/1999/xlink" viewBox="0 0 407.56 162.24"><defs><style>.cls-1{fill:#ecacad;}.cls-2{clip-path:url(#clip-path);}.cls-3{opacity:0.64;}.cls-4{fill:#e2e2e3;}.cls-5{fill:#cccdcf;}.cls-5,.cls-6{opacity:0.5;}.cls-6{fill:#f6e26a;}</style><clipPath id="clip-path"><rect class="cls-1" x="3.76" y="24.19" width="403.8" height="121.61"/></clipPath></defs><title>SalmonGridPaper</title><g id="Layer_2" data-name="Layer 2"><g id="Object"><rect class="cls-1" x="3.76" y="24.19" width="403.8" height="121.61"/><g class="cls-2"><g class="cls-3"><rect class="cls-4" x="24.57" y="25.12" width="1.35" height="123.69"/><rect class="cls-4" x="4.95" y="25.12" width="1.35" height="123.69"/><rect class="cls-4" x="43.21" y="25.12" width="1.35" height="123.69"/><rect class="cls-4" x="62.13" y="25.12" width="1.35" height="123.69"/><rect class="cls-4" x="81.33" y="25.12" width="1.35" height="123.69"/><polygon class="cls-4" points="101.69 148.82 100.34 148.8 102.39 24.19 103.75 24.2 101.69 148.82"/><polygon class="cls-4" points="122.14 148.82 120.79 148.8 122.58 24.9 123.94 24.91 122.14 148.82"/><rect class="cls-4" x="164.17" y="25.12" width="1.35" height="123.69"/><rect class="cls-4" x="144.55" y="25.12" width="1.35" height="123.69"/><rect class="cls-4" x="182.81" y="25.12" width="1.35" height="123.69"/><rect class="cls-4" x="201.73" y="25.12" width="1.35" height="123.69"/><rect class="cls-4" x="220.93" y="25.12" width="1.35" height="123.69"/><polygon class="cls-4" points="241.29 148.82 239.94 148.8 242 24.19 243.34 24.2 241.29 148.82"/><polygon class="cls-4" points="261.74 148.82 260.39 148.8 262.19 24.9 263.54 24.91 261.74 148.82"/><rect class="cls-4" x="303.29" y="25.12" width="1.35" height="123.69"/><rect class="cls-4" x="283.68" y="25.12" width="1.35" height="123.69"/><rect class="cls-4" x="321.93" y="25.12" width="1.35" height="123.69"/><rect class="cls-4" x="340.86" y="25.12" width="1.35" height="123.69"/><rect class="cls-4" x="360.06" y="25.12" width="1.35" height="123.69"/><polygon class="cls-4" points="380.42 148.82 379.07 148.8 381.12 24.19 382.47 24.2 380.42 148.82"/><polygon class="cls-4" points="400.87 148.82 399.51 148.8 401.31 24.9 402.66 24.91 400.87 148.82"/><rect class="cls-4" x="0.01" y="58.6" width="407.56" height="1.15"/><rect class="cls-4" x="0.01" y="43.27" width="407.56" height="1.15"/><rect class="cls-4" x="0.01" y="28.78" width="407.56" height="1.15"/><rect class="cls-4" x="0.01" y="89.25" width="407.56" height="1.15"/><rect class="cls-4" x="0.01" y="73.93" width="407.56" height="1.15"/><polygon class="cls-4" points="0.01 121.05 0 119.9 407.36 117.28 407.37 118.43 0.01 121.05"/><rect class="cls-4" x="0.01" y="104.58" width="407.56" height="1.15"/><rect class="cls-4" x="0.01" y="146.29" width="407.56" height="1.15"/><rect class="cls-4" x="2.35" y="131.73" width="402.68" height="1.15" transform="translate(-0.3 0.46) rotate(-0.13)"/></g></g><path class="cls-5" d="M40.67,7.93l0,.19h0c0-.06,0-.12,0-.19Z"/><path class="cls-5" d="M41,6.44c0-.08,0-.16,0-.25-.07.13-.13.24-.18.35a1.48,1.48,0,0,0,0,.21C40.9,6.65,41,6.55,41,6.44Z"/><path class="cls-5" d="M40.75,7.56c0-.1,0-.22,0-.34l-.1.29c0,.11.05.21.07.31C40.71,7.75,40.73,7.66,40.75,7.56Z"/><path class="cls-5" d="M40.69,6.9,40.62,7c0,.1,0,.19,0,.28l.11-.23C40.7,7,40.7,7,40.69,6.9Z"/><path class="cls-5" d="M40.72,8.11l.06.17V8.22l0-.2Z"/><path class="cls-5" d="M40.86,6.75a1.55,1.55,0,0,1,0-.21l-.18.35c0,.07,0,.13,0,.18Z"/><path class="cls-5" d="M40.84,7.18,41,6.56l-.12.31C40.85,7,40.84,7.08,40.84,7.18Z"/><path class="cls-5" d="M40.69,7.83c0-.1,0-.2-.07-.31l0,.11v0c0,.09,0,.18.08.26S40.68,7.86,40.69,7.83Z"/><path class="cls-5" d="M40.74,8l0,.19a.81.81,0,0,0,0-.16c0-.08,0-.17,0-.27Z"/><path class="cls-5" d="M62.82,41.76a1,1,0,0,1-.19.21A1,1,0,0,0,62.82,41.76Z"/><path class="cls-5" d="M36.41,13.83c-.07-.23-.16-.49-.26-.78C36.25,13.36,36.34,13.61,36.41,13.83Z"/><path class="cls-5" d="M37.3,11.75c-.51,1.92-.55,1.86-.1.95C37.12,12.63,37.14,12.36,37.3,11.75Z"/><path class="cls-5" d="M36.76,13.73q0-.51,0-1.32A12.1,12.1,0,0,0,36.76,13.73Z"/><path class="cls-5" d="M35.37,14.55l-.47-.29Z"/><path class="cls-5" d="M38.7,10.84l.06,0h0Z"/><path class="cls-5" d="M58.51,45c.94-.73.92-1.13,0,0Z"/><path class="cls-5" d="M37.2,12.7h0c.06-.13.12-.27.19-.41C37.33,12.44,37.26,12.58,37.2,12.7Z"/><path class="cls-5" d="M38.7,10.84a.44.44,0,0,1,0-.43C38.6,10.63,38.63,10.77,38.7,10.84Z"/><path class="cls-5" d="M62.07,42.54c.16-.31.11-.5,0-.61h0C62.16,42.06,62.22,42.25,62.07,42.54Z"/><path class="cls-5" d="M38.8,10.06a.68.68,0,0,0,.37.25h0A.66.66,0,0,1,38.8,10.06Z"/><path class="cls-5" d="M61,42.18l.12-.08h0Z"/><path class="cls-5" d="M61.71,42.82a.67.67,0,0,0-.18-.62v0A.63.63,0,0,1,61.71,42.82Z"/><path class="cls-5" d="M62.82,41.76a.25.25,0,0,0,0-.08h0A.14.14,0,0,1,62.82,41.76Z"/><path class="cls-5" d="M60.4,42.21l.05,0h0Z"/><path class="cls-5" d="M60.89,42.15a.71.71,0,0,1,.14-.1h0A.71.71,0,0,0,60.89,42.15Z"/><path class="cls-5" d="M59.48,43.63c-.09.27-.2.63-.36,1.1C59.43,43.8,59.57,43.5,59.48,43.63Z"/><path class="cls-5" d="M60.78,42.12,61,42h0Z"/><path class="cls-5" d="M40.52,7.23l0,.18h0V7.31l0-.12Z"/><path class="cls-5" d="M40.68,6.81V6.9h0Z"/><path class="cls-5" d="M40.87,6.48v.06h0Z"/><path class="cls-5" d="M40.69,7.83l.05.19V8l-.05-.18Z"/><path class="cls-5" d="M40.54,7.19l0,.12q0-.1,0-.24Z"/><path class="cls-5" d="M40.71,7.07h0s0,.1,0,.14h0A.59.59,0,0,1,40.71,7.07Z"/><path class="cls-5" d="M40.74,8.67c-.13-.27-.3-.62-.53-1.07Z"/><path class="cls-5" d="M40.85,6.87V6.75h0v.12Z"/><path class="cls-5" d="M40.73,7.21c0,.12,0,.22,0,.32,0-.1.05-.21.07-.33s0-.21,0-.33C40.8,7,40.76,7.11,40.73,7.21Z"/><path class="cls-5" d="M40.75,7.56a1.68,1.68,0,0,1,0,.2V7.7l0-.17Z"/><path class="cls-5" d="M40.63,8.06c0-.1,0-.23-.05-.39C40.56,8.09,40.57,8.22,40.63,8.06Z"/><path class="cls-5" d="M40.49,7.29v0l0,.15,0,0,0-.19Z"/><path class="cls-5" d="M40.53,7.46l0-.15C40.36,7.74,40.37,7.78,40.53,7.46Z"/><path class="cls-5" d="M40.62,8.34l-.37-.79Z"/><path class="cls-5" d="M40.82,8.53s0,0,0,0Z"/><path class="cls-5" d="M40.64,8l0-.08-.08-.26C40.61,7.8,40.63,7.92,40.64,8Z"/><path class="cls-5" d="M40.68,6.23c0,.17,0,.33,0,.47h0C40.66,6.55,40.67,6.39,40.68,6.23Z"/><path class="cls-5" d="M41.11,5.44c-.14.43-.27.78-.38,1.07l0-.06Z"/><path class="cls-5" d="M58.51,45h0l-.1.14Z"/><path class="cls-5" d="M61.4,41.79l.07,0h0l-.06,0Z"/><path class="cls-5" d="M60.64,41.94l0,0h0Z"/><path class="cls-5" d="M61.47,42.51a.88.88,0,0,0-.22-.36h0l-.08-.08,0,0a.79.79,0,0,1,.34.43v0a1.14,1.14,0,0,1,.05.33,1.66,1.66,0,0,0,0-.33.89.89,0,0,0,.05-.3.48.48,0,0,0-.11-.09A.81.81,0,0,1,61.47,42.51Z"/><path class="cls-5" d="M60.65,42l.18-.08h0l-.18.08Z"/><path class="cls-5" d="M60.88,42h0l-.13.1A.71.71,0,0,1,60.88,42Z"/><path class="cls-5" d="M61.11,42h0l-.06,0,.09.05.05,0Z"/><path class="cls-5" d="M61,42h.08L61,42,61,42h0L61,42h0l-.06,0h0l0,0-.1,0h0l-.22.08-.1,0h0l.12,0,0,0h0a.19.19,0,0,1,.1.05h0a.12.12,0,0,1,0,0h0a.12.12,0,0,0,0,0l.17-.11h0l.08,0,0,0Zm-.27.12-.09-.06.22,0,0,0h0l0,0h0A.91.91,0,0,0,60.74,42.13Z"/><path class="cls-5" d="M60.56,42l.3,0a.76.76,0,0,0-.21,0Z"/><path class="cls-5" d="M60.88,42.26a.32.32,0,0,0-.09-.08.82.82,0,0,0-.28,0l-.06,0a.75.75,0,0,1,.51.2,1.82,1.82,0,0,1,.24.66,2,2,0,0,0-.23-.65,1.11,1.11,0,0,1,.32.67.74.74,0,0,0-.5-.88A.32.32,0,0,1,60.88,42.26Z"/><path class="cls-5" d="M60.53,42.13h0Z"/><path class="cls-5" d="M60.61,42l-.06.06h0l.08-.06Z"/><path class="cls-5" d="M61.41,42.11l-.06,0,0,0h0l0,0-.11,0,.11-.06h0l-.12.06h-.11l.09,0h0l0,0,.11.05-.07,0h0l.07,0,.1,0,0,0,0,0h0l0,0h0l0,0Z"/><path class="cls-5" d="M61.17,41.8h0Z"/><path class="cls-5" d="M61.41,42.11h0l.07,0a.43.43,0,0,0,0-.07l-.08,0A.14.14,0,0,0,61.41,42.11Z"/><polygon class="cls-5" points="61.08 42.01 61.08 42.02 61.09 42.02 61.09 42.01 61.08 42.01"/><polygon class="cls-5" points="61.1 42.02 61.09 42.01 61.09 42.01 61.1 42.02"/><path class="cls-5" d="M40.78,7.7l0,.17c0-.13,0-.28,0-.45C40.81,7.52,40.79,7.61,40.78,7.7Z"/><path class="cls-5" d="M61.38,42.05l.08,0,0-.06-.08,0Z"/><path class="cls-5" d="M60.61,42.09l-.08,0A.2.2,0,0,1,60.61,42.09Z"/><path class="cls-5" d="M66.11,39.48l-.13.21v0l.14-.21Z"/><path class="cls-5" d="M66,39.71a4.94,4.94,0,0,0,.26-.5l-.18.29A1,1,0,0,1,66,39.71Z"/><path class="cls-5" d="M61.53,42.2s0-.08,0-.12l-.06,0Z"/><path class="cls-5" d="M65.75,40.22a3.93,3.93,0,0,0,.28-.51c-.07.13-.14.26-.22.39Z"/><path class="cls-5" d="M66.29,39.21c0-.08.09-.16.12-.22l-.1.17A.17.17,0,0,1,66.29,39.21Z"/><path class="cls-5" d="M62.33,41.7l.17,0h-.1Z"/><path class="cls-5" d="M66.41,39c.39-.67.47-1-.08-.16C66.54,38.64,66.55,38.73,66.41,39Z"/><path class="cls-6" d="M53.59,13.75a2.89,2.89,0,0,0-.47-.81L44.09,0c-.31.68-.63,1.37-1,2.05-.1.23-.21.46-.32.69s-.65.61-.34.68c-.47.26-2.13,3.54-.34.69C41.47,5.16,41,6,40.77,6.45c0,.11-.08.22-.11.32.16-.23.52-.85,1.12-2l-.73,1.4c0,.08,0,.16,0,.24l.42-1c-.17.4-.32.76-.44,1.07s-.11.59-.15.82,0,.48,0,.66.07.54.08.66l.06.21c0,.21.06.27,0,.18s-.18-.39-.34-.73c.13.28.24.51.31.68,0-.08-.11-.19-.19-.35.1.2.18.35.22.44.23.55,0,.21-1-1.08,1.47,2,1.52,2.05-.15.25,1.67,1.8,1.72,1.9-.25.4,2,1.5,2,1.55-.21.32,2.2,1.23,2.24,1.31-.14.32,1.61.67,2.11.85,1.44.74-.27-.11-.69-.27-1.25-.51l1.18.5-.72-.14c.07-.09,0-.11-.14,0l-.85-.18.84.18-.26.14a1.34,1.34,0,0,0-.26.29l.26,0a3.29,3.29,0,0,1,.34-.36l.06-.08,1,.24c.28.13.27.15-.06.13l-.18,0c-.15,0-.71.35-1.2.51A14.07,14.07,0,0,1,38,11.9c-.36.49-.68.87-.81.81-.31.69-.42,1.1-.46,1,0,1.11,0,1.17-.35.1.51,1.53.41,1.45-.88-.17,1.36,1.7,1.47,1.85-.16.89,1,.58,1.27.75.81.66a3.77,3.77,0,0,1-.74,0l-.62.13a17.57,17.57,0,0,0-2.14,1.16c2.33-1.36,0,.24-.45.86a2.74,2.74,0,0,0-.11,1.4A3.64,3.64,0,0,0,32.63,20a8.2,8.2,0,0,0,.8,1l1.16,1.32c3.47,4,1.7,1.71,5.18,5.68,3.29,3.77,2.51,4.49,5.67,8.39,2.54,3.14,4.7,7.91,7.68,10.83a10.89,10.89,0,0,0,1.33,1.13c.3-.42,1.39-.88.91-1.11,1-.31,2.6-.84,1.09-.9,1.85-.18,2.93-1.77,1.22-.76A7.35,7.35,0,0,0,58.5,45a13.3,13.3,0,0,0,1-1.41,2.83,2.83,0,0,1,.18-.47c.09-.08.07.32.05,1.25,0-.93.07-1.47,0-1.47a6.56,6.56,0,0,1,.07,1.34c0-1,0-1.44,0-1.39s.09.13.15.42.06.49.12.81c-.06-.3-.1-.57-.12-.78,0,.22.09.52.17.89-.16-.76-.18-1.29-.22-1.41v0a0,0,0,0,1,.06,0c.05.2.12.64.29,1.23-.17-.58-.22-1-.27-1.22a4.34,4.34,0,0,1,.51,1.1A5.38,5.38,0,0,0,60,42.72s0,0,0,0,.29.47.58,1.15c-.32-.76-.46-1.22-.6-1.19h0c.19-.15.41.28.78,1.1-.37-.83-.53-1.3-.7-1.16.16-.13.34.14.61.68,0,.11.1.22.15.35l-.1-.25c0,.09.09.2.15.31l-.17-.35c-.28-.68-.42-1.12-.6-1a.58.58,0,0,1,.41-.15l.06,0a1,1,0,0,0-.29,0l0-.06.24-.09a.43.43,0,0,0-.22.06l0-.07a.36.36,0,0,1,.25,0h0l.07-.06a1.13,1.13,0,0,0-.32,0l0-.08a1.09,1.09,0,0,1,.23-.09l.2,0-.12.08.12-.08.06,0a1.57,1.57,0,0,1,.31-.08h0l.29,0a4.47,4.47,0,0,1,.73-.17h0l.28,0a1.61,1.61,0,0,1,.22,0h-.16l.15,0h-.28l-.16,0h0a3.63,3.63,0,0,0-.6.17l.15,0h.05a4.77,4.77,0,0,1,.47-.13h0a2.79,2.79,0,0,0-.35.11H62l.29-.08v0a.83.83,0,0,0-.21.06h0l-.15.06-.06,0,.11,0h-.1l0,0h0l-.06,0h0l.06,0,.06,0,0,0h0l0,0,.11.06,0,0h0l0,0c.16.11.21.3,0,.58a.6.6,0,0,0,.1-.41.54.54,0,0,0,.13-.25c.18.08.23.26,0,.57.25-.32.2-.51,0-.59l.3-.15h0l0,0,0,0h.14s0,0,0,0h-.09l.06,0h0l-.06,0h0l.07,0-.07,0h-.1l.14,0h.11l0,0h0l0,0s.07,0,.07.06h-.08l0,0h.06c0,.06-.07.14-.21.25a.55.55,0,0,0,.22-.24c.06,0,.1.07.09.14l-.15.1.15-.1c0,.08-.09.18-.27.32a.75.75,0,0,0,.29-.34c.18-.16.13-.24-.06-.26.45-.05.65.06.11.33.25-.13.37-.23.4-.3l-.07,0,.07,0c0-.11-.13-.14-.43-.08h0c.44-.12.76-.12.75,0h0s-.06,0-.16.09a.7.7,0,0,0,.24-.12c.14-.06.18-.1.15-.12l-.3,0,.29,0-.06,0a2.55,2.55,0,0,0-.69.14,2.79,2.79,0,0,1,.51-.1c.18,0,.24,0,.1.09,0,0,0-.07-.15-.07a2.79,2.79,0,0,0-.51.1l-.13,0,.1,0-.18.06h0l-.13.05h0l.13-.05h0l.24-.08a2.75,2.75,0,0,1,.86-.18c.14,0,.19,0,.12,0,.18,0,.21-.08.08,0a2.69,2.69,0,0,0-1.22.24,7,7,0,0,1,1-.27h0a1,1,0,0,1,.23,0h.14l-.13,0,0,0,.1,0c.23,0,.37,0,.3.08.19-.22-.13-.14-.71-.19.59,0,1.08-.15.91.14.28-.35.16-.52-.57-.43.75-.11,1.13-.26.84.23a8.07,8.07,0,0,0,.49-.78l-.29.43.35-.55a2.15,2.15,0,0,0,.16-.39l-.34.5.35-.52c.07-.26,0-.3-.57.18.54-.51.72-.56.7-.39l.2-.32c.1-.23.1-.34,0-.24h0a3.35,3.35,0,0,0-.46.47,6.82,6.82,0,0,1,.52-.56c.88-1.28.94-1.34.24,0,.81-1.52.74-1.81,1.12-1.45-.36-.39-.34-.4.62-.73-.93.29-.73.23.71-.87-1.38,1-.85.63.64-.82-1.34,1.24-.32.21.6-.83-1,.51-.94-.78-1.06-1.4a2,2,0,0,1-1.07-1.4A2.3,2.3,0,0,1,67.06,30,2.58,2.58,0,0,1,66,28.56c-.51-.29-.73-.91-1.07-1.4s-.74-.91-1.07-1.4-.71-.93-1.07-1.4l-2.13-2.79a44.66,44.66,0,0,0-5.12-5.94C53.63,13.88,55.27,15.32,53.59,13.75Zm6.32,29.06h0Zm0-.1s0,0,0,0l.06,0,0,0Zm.65.4c-.23-.46-.39-.7-.54-.59C60.15,42.37,60.3,42.61,60.54,43.11Zm-.43-1a.51.51,0,0,1,.18-.09A.51.51,0,0,0,60.11,42.11Zm2.18-.46.11,0-.11,0Zm0,.06,0,0-.08,0h-.12Zm0,0v.05l-.06,0Zm-.36.07.15-.06.12,0-.17.1Zm.23.25a.3.3,0,0,0-.12-.19l.17-.09.07,0,0,0,0,0h0A.54.54,0,0,1,62.21,42.08Zm.44-.42-.3.15h0v-.05l.21-.1Zm-.12,0h0l-.18.08a.05.05,0,0,0,0,0h0v0h.08l.24-.06Zm.18-.07h0Zm.1,0h0Zm.2.23c0-.07,0-.12-.11-.14s0-.06-.07-.08h0C63.08,41.59,63.18,41.66,63,41.81Z"/><path class="cls-5" d="M66.27,38.92a.47.47,0,0,0,.06-.09h0l-.06.09Z"/><path class="cls-5" d="M64.1,41.19h0Z"/><path class="cls-5" d="M63.46,41.59l.18-.05-.18.05Z"/><path class="cls-5" d="M62.75,41.61l0,0h0l0,0h0Z"/><path class="cls-5" d="M62.78,41.62h0l0,0h0Z"/><path class="cls-5" d="M62,41.94a.45.45,0,0,0-.12-.06h0l-.07,0h-.1l-.08,0,.07,0h0l.08,0h-.21l0,0a.45.45,0,0,0-.16,0h-.06l0,0h0l-.08,0L61,42l.21-.1-.06,0a1.76,1.76,0,0,0-.33.07L61,42h.06l0,0h0l0,0,.19,0-.18.1h0l.19-.09h0l.06,0h.1l-.06,0h0l.07,0h.13l-.16.09h0a.56.56,0,0,1,.17-.09h.1l-.23.15h0a2,2,0,0,1,.25-.14.39.39,0,0,1,.15.06l0,0,0,0c.19.1.27.28.13.57.15-.31.1-.51,0-.62h0Zm-.81,0,0,0,0,0Zm.09,0,0,0h.06a.05.05,0,0,1,0,0Z"/><path class="cls-5" d="M63.8,41.45h0l-.33.08Z"/><path class="cls-5" d="M63.19,41.45h0l.05,0h0Z"/><polygon class="cls-5" points="63 41.51 63 41.51 63.01 41.51 63 41.51 63 41.51"/><path class="cls-5" d="M64,41.3l.19,0-.2,0Z"/><path class="cls-5" d="M61.41,41.93l0,0h-.1l.05,0Z"/><path class="cls-5" d="M40.14,10.24,40,10.3c.21,0,.4-.08.52-.09S40.52,10.15,40.14,10.24Z"/><path class="cls-5" d="M38.93,10.9l.49-.54a1.11,1.11,0,0,1-.25,0l-.41.56A.43.43,0,0,0,38.93,10.9Z"/><path class="cls-5" d="M39,10.89h0a5.68,5.68,0,0,0,.64-.28l-.16.14c.32-.14.66-.34.86-.44h-.09a.8.8,0,0,1,.2-.07l0,0h0a.88.88,0,0,0-.26.09l-.25,0-.32.25A5.32,5.32,0,0,1,39,10.89Z"/><path class="cls-5" d="M40.9,8.68l-.08-.34V8l0-.15a.81.81,0,0,1,0,.16c0,.11,0,.2,0,.27l0-.11v0l0,.15v.06l0-.15v0l0,.16v0l.07.22c0,.07,0,.11,0,.09,0,.15,0,.19,0,.11a1.31,1.31,0,0,1-.05-.15Zm-.08-.24v0l0,.15Z"/><path class="cls-5" d="M40.6,10.2h-.07l-.06,0C40.83,10.21,40.87,10.22,40.6,10.2Z"/><path class="cls-5" d="M39.94,10.35l.07,0a2.16,2.16,0,0,1-.57,0h0A2.26,2.26,0,0,0,39.94,10.35Z"/><path class="cls-5" d="M40.45,10.25h0l-.11.06a1.54,1.54,0,0,1,.39,0h0S40.68,10.24,40.45,10.25Z"/><path class="cls-5" d="M38.93,10.9h0l.05,0Z"/><path class="cls-5" d="M39,10.89l-.06,0a1.12,1.12,0,0,0,.45-.09l.09-.07A1.7,1.7,0,0,1,39,10.89Z"/><path class="cls-5" d="M40.69,8.3q.06.33.09,0l-.06-.18A1.06,1.06,0,0,1,40.69,8.3Z"/><path class="cls-5" d="M40.63,8.06c0,.26,0,.34.06.24s0-.17,0-.29A.43.43,0,0,1,40.63,8.06Z"/><path class="cls-5" d="M41.05,6.19h0v0Z"/><path class="cls-5" d="M40.73,6.51l-.08.18v.08Z"/><path class="cls-5" d="M40.83,7.2a1.55,1.55,0,0,1,0,.22V7.36a1.09,1.09,0,0,0,0-.18Z"/><path class="cls-5" d="M41,6.56v0s0-.08,0-.11h0Z"/><path class="cls-5" d="M40.64,6.7c-.08.17-.09.22,0,.13v0S40.64,6.74,40.64,6.7Z"/><path class="cls-5" d="M40.59,7.67h0v0h0v0a1.27,1.27,0,0,0,0-.2l0,.11h0l0-.1v-.1l0,0v0h0v0l0,.05v0h0v0h0v0c-.07.51-.1.55,0,.14v0Z"/><path class="cls-5" d="M40.48,7.31v0l0-.08v0h0v0h0v0l.09-.26c0,.06,0,.12,0,.17l0,0V6.85l0-.08,0,0v0h0a0,0,0,0,1,0,0l-.1.27h0v0l-.06-.38.06.38,0,.12,0,0,0,0c-.13.33-.13.35,0,.06h0Z"/><path class="cls-5" d="M38,11.9l.27-.37c-.34.33-.64.56-.73.49C37.63,12.11,37.8,12.05,38,11.9Z"/><path class="cls-5" d="M61.28,41.85l.15-.06h0l-.13.05Z"/><path class="cls-5" d="M61.77,41.79l-.06,0h0l.09,0h0l.08,0h-.14Z"/><path class="cls-5" d="M62.1,41.61a3.83,3.83,0,0,0-.63.15h0A3.51,3.51,0,0,1,62.1,41.61Z"/><path class="cls-5" d="M61.7,41.82h0Z"/><path class="cls-5" d="M61.79,41.83Z"/><path class="cls-5" d="M61.25,41.86h0Z"/><path class="cls-5" d="M38.91,10.91h0a.33.33,0,0,1-.15,0L38.7,11c-.26,0-.43,0-.39-.33,0,.31.13.38.39.33l-.4.57c.19-.18.41-.4.61-.62Z"/><path class="cls-5" d="M61.37,41.79h-.2l.08,0Z"/><path class="cls-5" d="M61.25,41.83l0,0h0Z"/><path class="cls-5" d="M61.43,41.79h.11l.07,0H61.5Z"/><path class="cls-5" d="M37.57,12h0c.18-.33.4-.7.66-1.1a10.64,10.64,0,0,0-.66,1.1c-.05-.11,0-.39.28-.92-.29.58-.35.85-.28.92l-.15.29.15-.28Z"/><path class="cls-5" d="M62.38,41.57h.07l-.26,0h0Z"/><path class="cls-5" d="M61.76,41.83h0Z"/><path class="cls-5" d="M62.19,41.59h0l-.08,0Z"/><path class="cls-5" d="M35.44,15.22l.43-.09.31.08s-.6-.16-1.81-.47l1.49.39c-.1,0-.76.07-2,.09h1.25c-.17.06-.71.23-1.76.5.6-.16,1.1-.27,1.49-.36l.3-.14Z"/><path class="cls-5" d="M61.88,41.87h0l-.07,0h0Z"/><path class="cls-5" d="M62,41.94l0,0-.11-.06h0A.41.41,0,0,1,62,41.94Z"/><path class="cls-5" d="M62.1,41.77h0Z"/><path class="cls-5" d="M267.62,127.66l-.17.1h0l.17-.09Z"/><path class="cls-5" d="M269.14,127.66h.26l-.38-.1-.21,0Z"/><path class="cls-5" d="M268,127.67l.32-.1-.31,0-.28.14Z"/><path class="cls-5" d="M268.63,127.46l-.15,0-.27,0,.25,0Z"/><path class="cls-5" d="M267.46,127.76l-.16.09h.06l.19-.09Z"/><path class="cls-5" d="M268.81,127.6l.21,0-.39-.09-.17,0Z"/><path class="cls-5" d="M268.39,127.67H269l-.32,0Z"/><path class="cls-5" d="M267.72,127.67l.29-.14h-.14l-.24.14Z"/><path class="cls-5" d="M267.57,127.75l-.18.09.15,0,.26-.08Z"/><path class="cls-5" d="M239.39,156.62a.72.72,0,0,1-.25-.14A.72.72,0,0,0,239.39,156.62Z"/><path class="cls-5" d="M260.94,124.79l.71-.43Z"/><path class="cls-5" d="M263.15,125.21c-2-.08-1.93-.14-.94.11C262.26,125.23,262.53,125.18,263.15,125.21Z"/><path class="cls-5" d="M261.11,125.11l1.28-.31A13.07,13.07,0,0,0,261.11,125.11Z"/><path class="cls-5" d="M260,123.93c.05-.16.11-.33.17-.53C260.12,123.6,260.06,123.77,260,123.93Z"/><path class="cls-5" d="M264.36,126.37a.36.36,0,0,0,0,.07h0A.26.26,0,0,1,264.36,126.37Z"/><path class="cls-5" d="M235.26,153.12c.92.76,1.3.65,0,0Z"/><path class="cls-5" d="M262.21,125.32h0l.44.1Z"/><path class="cls-5" d="M264.36,126.37c.05-.08.18-.13.4-.13C264.53,126.24,264.41,126.29,264.36,126.37Z"/><path class="cls-5" d="M238.47,156.06c.33.09.51,0,.58-.18h0C239,156,238.78,156.14,238.47,156.06Z"/><path class="cls-5" d="M265.13,126.3a.73.73,0,0,0-.16.43h0A.61.61,0,0,1,265.13,126.3Z"/><path class="cls-5" d="M238.59,155l.1.09h0Z"/><path class="cls-5" d="M238.11,155.76a.62.62,0,0,0,.57-.31l0,0A.62.62,0,0,1,238.11,155.76Z"/><path class="cls-5" d="M239.39,156.62h.08S239.43,156.62,239.39,156.62Z"/><path class="cls-5" d="M238.42,154.35l0,.05h0Z"/><path class="cls-5" d="M238.59,154.82a.71.71,0,0,1,.13.12h0Z"/><path class="cls-5" d="M236.84,153.77l-1.15-.12C236.66,153.75,237,153.82,236.84,153.77Z"/><path class="cls-5" d="M238.59,154.71l.15.14h0A.86.86,0,0,0,238.59,154.71Z"/><path class="cls-5" d="M268.27,127.38l-.17.06h.1l.11-.06Z"/><path class="cls-5" d="M268.71,127.44l-.08,0h0Z"/><path class="cls-5" d="M269.08,127.55h0Z"/><path class="cls-5" d="M267.72,127.67l-.17.08h0l.16-.08Z"/><path class="cls-5" d="M268.31,127.38l-.1.06.23,0Z"/><path class="cls-5" d="M268.46,127.52h0l-.14,0h0Z"/><path class="cls-5" d="M266.91,127.9l.94-.75Z"/><path class="cls-5" d="M268.7,127.62l.11,0h0l-.12,0Z"/><path class="cls-5" d="M268.33,127.57l-.3.1h.33l.33,0Z"/><path class="cls-5" d="M268,127.67l-.2.06h.07l.16-.06Z"/><path class="cls-5" d="M267.48,127.65l.38-.13C267.44,127.59,267.31,127.63,267.48,127.65Z"/><path class="cls-5" d="M268.21,127.36h0l-.13.07h0l.18-.07Z"/><path class="cls-5" d="M268.05,127.43l.13-.07C267.74,127.32,267.7,127.34,268.05,127.43Z"/><path class="cls-5" d="M267.21,127.71l.69-.53Z"/><path class="cls-5" d="M267.06,128Z"/><path class="cls-5" d="M267.53,127.66h.09l.24-.12Z"/><path class="cls-5" d="M269.29,127.31l-.48.07h0Z"/><path class="cls-5" d="M270.15,127.56l-1.13-.13.07,0Z"/><path class="cls-5" d="M235.26,153.12h0l-.16-.07Z"/><path class="cls-5" d="M239.06,155.24l0,.06v0a.21.21,0,0,1,0-.06Z"/><path class="cls-5" d="M238.74,154.53l0,0h0Z"/><path class="cls-5" d="M238.36,155.46a.79.79,0,0,0,.31-.29h0l.06-.09,0,0a.81.81,0,0,1-.35.43h0a2.09,2.09,0,0,1-.3.11l.31-.11a1,1,0,0,0,.3,0s.05-.08.07-.13A.91.91,0,0,1,238.36,155.46Z"/><path class="cls-5" d="M238.72,154.54l.12.16h0l-.12-.16Z"/><path class="cls-5" d="M238.72,154.78h0l-.12-.12Z"/><path class="cls-5" d="M238.76,155v0l0,0,0,.09,0,0S238.75,155,238.76,155Z"/><path class="cls-5" d="M238.76,154.9a.22.22,0,0,0,0,.08h0l0-.07s0,0-.05,0h0a.12.12,0,0,1,.05,0h0l0,0,0-.05h0s0,0,0,0l0-.09v0h0l-.12-.19a.52.52,0,0,0,0-.11h0l0-.06a.08.08,0,0,1,0,0h0a.62.62,0,0,1,0,.13l0,0,0,0a.45.45,0,0,1,0,.11h0l0,.06h0l0-.06a.93.93,0,0,1,.14.14v0h0s0,.05,0,.08l0,0Zm-.18-.23a.29.29,0,0,0,0-.1.81.81,0,0,1,.1.21l0,0h0l0,0v0A.86.86,0,0,0,238.58,154.67Z"/><path class="cls-5" d="M238.65,154.47a1.31,1.31,0,0,1,.09.28,1.49,1.49,0,0,0,0-.21Z"/><path class="cls-5" d="M238.48,154.83a.53.53,0,0,0,.06-.1.88.88,0,0,0,0-.28l-.06,0a.75.75,0,0,1-.08.54,1.71,1.71,0,0,1-.6.37,1.81,1.81,0,0,0,.59-.36,1.12,1.12,0,0,1-.58.46.75.75,0,0,0,.75-.68A.53.53,0,0,1,238.48,154.83Z"/><path class="cls-5" d="M238.53,154.46h0Z"/><path class="cls-5" d="M238.71,154.51a.18.18,0,0,0-.07,0h0a.46.46,0,0,0,.07.07Z"/><path class="cls-5" d="M238.74,155.31l0-.06,0,0h0l0,0a.5.5,0,0,0,0-.12l.08.09h0a.76.76,0,0,0-.08-.11s0-.08,0-.12h0v.1l0,0h0l0,0a.5.5,0,0,0,0,.12l-.07-.06h0l.07.06,0,.1h0l0,0h0l0,0Z"/><path class="cls-5" d="M239,155v0h0Z"/><path class="cls-5" d="M238.74,155.31v.05a.12.12,0,0,1,0,0l.07-.06a.46.46,0,0,1-.07-.07Z"/><polygon class="cls-5" points="238.76 154.98 238.76 154.97 238.76 154.98 238.77 154.99 238.76 154.98"/><polygon class="cls-5" points="238.77 154.99 238.77 154.99 238.77 154.99 238.77 154.99"/><path class="cls-5" d="M267.87,127.73l-.16.06.44-.08Z"/><path class="cls-5" d="M238.79,155.28l.07.07,0-.06,0-.07Z"/><path class="cls-5" d="M238.59,154.53l-.06-.07Z"/><path class="cls-5" d="M242.32,159.34l-.23-.08h0l.23.09Z"/><path class="cls-5" d="M242.08,159.31a4.45,4.45,0,0,0,.55.14l-.32-.11Z"/><path class="cls-5" d="M238.68,155.45l.11,0-.06,0A.41.41,0,0,1,238.68,155.45Z"/><path class="cls-5" d="M241.52,159.14a3.73,3.73,0,0,0,.56.17l-.42-.13Z"/><path class="cls-5" d="M242.63,159.45l.24.08-.18-.06Z"/><path class="cls-5" d="M239.34,156.13l.07.15,0-.08Z"/><path class="cls-5" d="M242.87,159.53c.74.23,1,.25.14-.11C243.24,159.58,243.15,159.6,242.87,159.53Z"/><path class="cls-6" d="M264.74,141.54c.08,0,.28-.2.68-.64l10.68-11.61-2.21-.49-.74-.17c-.25-.06-.74-.5-.74-.18-.35-.41-3.91-1.31-.74-.18-1.17-.42-2.07-.69-2.58-.82l-.34,0c.26.1.94.32,2.18.66l-1.53-.41h-.24l1,.2-1.14-.2-.84,0-.65.13-.62.22-.2.1c-.19.1-.25.11-.17,0l.64-.49-.6.45.3-.26-.38.31c-.49.34-.22,0,.84-1.22-1.6,1.86-1.67,1.92-.28-.09-1.39,2-1.48,2.09-.44-.17-1,2.26-1.09,2.29-.36-.13-.73,2.42-.79,2.47-.34-.06-.31,1.71-.38,2.24-.42,1.56.05-.29.11-.73.23-1.33-.11.55-.18,1-.23,1.26,0-.18,0-.43,0-.73.1,0,.11,0,0-.14s0-.55,0-.88c0,.33,0,.61,0,.87a2.49,2.49,0,0,0-.19-.23,1.6,1.6,0,0,0-.33-.19,1.15,1.15,0,0,0,0,.26l.43.25.08.05c0,.46,0,.8,0,1s-.09.29-.14,0a1,1,0,0,1-.07-.16c0-.14-.49-.62-.76-1.06a13.73,13.73,0,0,1-1.33-1.06c-.57-.25-1-.49-1-.63-.74-.15-1.17-.17-1.1-.22-1.08.27-1.14.27-.17-.32-1.39.83-1.33.71,0-.89-1.37,1.69-1.49,1.82-.9,0-.36,1.08-.46,1.4-.47.93a4.27,4.27,0,0,1-.17-.72c-.06-.15-.15-.34-.26-.58a18.47,18.47,0,0,0-1.59-1.83c1.83,2-.24.09-.95-.25a2.64,2.64,0,0,0-1.39.19,3.66,3.66,0,0,0-1.07.76,8.12,8.12,0,0,0-.85,1l-1,1.41c-3.12,4.25-1.29,2-4.42,6.29-3,4-3.84,3.43-7,7.35-2.52,3.17-6.7,6.3-8.91,9.84a11.54,11.54,0,0,0-.82,1.55c.48.21,1.17,1.17,1.28.65.53.93,1.38,2.35,1.11.87.58,1.76,2.37,2.47,1,1a7.41,7.41,0,0,0,.73.69,15.37,15.37,0,0,0,1.59.66,3,3,0,0,1,.49.07c.1.06-.29.13-1.21.31.92-.17,1.46-.25,1.45-.27a7.17,7.17,0,0,1-1.29.35c.91-.24,1.41-.3,1.35-.31s-.11.12-.38.24-.46.16-.76.29c.28-.12.53-.21.74-.28-.21.09-.49.2-.83.36.7-.32,1.22-.46,1.32-.52h0a.09.09,0,0,1,0,.06c-.19.1-.6.25-1.14.55a10.92,10.92,0,0,1,1.13-.53,4.11,4.11,0,0,1-1,.74,5.35,5.35,0,0,0,1-.76l0,0c0,.15-.39.38-1,.81.68-.48,1.09-.71,1-.84v0c.19.15-.18.46-.9,1,.72-.54,1.15-.8,1-.93.16.12-.07.36-.54.74l-.3.22.22-.16-.27.22.3-.24c.61-.43,1-.65.84-.8a.56.56,0,0,1,.23.36l.06.06a1,1,0,0,0-.11-.28h.07a1.07,1.07,0,0,1,.13.21.35.35,0,0,0-.1-.2l.08,0a.39.39,0,0,1,0,.24h0l.07.06a.73.73,0,0,0-.12-.3l.09,0a.9.9,0,0,1,.14.2,1.36,1.36,0,0,1,0,.2l-.1-.1.1.1v.06l.15.29h0a2.31,2.31,0,0,1,.1.28,4.6,4.6,0,0,1,.33.67v0h0a2,2,0,0,1,.08.26,1.6,1.6,0,0,1,.05.21,1.24,1.24,0,0,0,0-.16.47.47,0,0,1,0,.16v0a1.51,1.51,0,0,0,0-.26,1,1,0,0,0-.07-.15v0h0v0a3.65,3.65,0,0,0-.29-.55.81.81,0,0,1,0,.16l0,0a4.5,4.5,0,0,1,.23.43h0c-.06-.1-.12-.21-.19-.31s0,0,0,.07.09.18.13.27h0l-.11-.19h0a.57.57,0,0,0-.08-.13v-.07l.06.1,0-.1,0,0v0h0v0l0-.05s0,0,0,0l0,.05s0,0,0,.07l0,0h0l0,0a.56.56,0,0,1,0,.12l0,0h0l0,0c-.08.18-.25.27-.56.18a.7.7,0,0,0,.43,0,.67.67,0,0,0,.27.07c0,.19-.21.28-.56.12.37.17.54.08.58-.12l.21.26v0l0,0,0,0a.71.71,0,0,1,0,.14l0,0a.28.28,0,0,0,0-.09l0,0h0l0,0a.06.06,0,0,1,0,0l.05.06-.05-.06,0-.09a.44.44,0,0,0,.08.11v0h0a.14.14,0,0,1,0,.06h0v0l0,0h0l0,0a.12.12,0,0,1-.05.08.31.31,0,0,0,0-.09l0,0v.06c-.06,0-.15,0-.29-.15a.47.47,0,0,0,.29.16c0,.07-.05.12-.12.12l-.13-.12.13.12c-.08,0-.2-.05-.37-.19a.73.73,0,0,0,.39.21c.2.14.26.07.24-.12.15.43.09.65-.3.18.18.22.3.31.38.33l0-.06,0,.06c.12,0,.11-.16,0-.44v0c.21.4.28.72.22.72h0s-.07,0-.13-.14a.92.92,0,0,0,.17.21c.09.13.14.16.15.12a2.57,2.57,0,0,1-.09-.29c0,.11.06.2.09.28s0,0,0-.06a2.3,2.3,0,0,0-.28-.64,2.31,2.31,0,0,1,.2.47c0,.18,0,.24-.06.12s.06,0,0-.16a2.36,2.36,0,0,0-.2-.48s0-.08-.07-.12a.41.41,0,0,1,.05.09.7.7,0,0,0-.1-.16l0,0h0v0a.76.76,0,0,0-.08-.11h0a1,1,0,0,1,.08.11h0l.13.22a3,3,0,0,1,.37.8c.05.13,0,.18,0,.12.08.17.12.19.06.07s-.17-.58-.51-1.14a6.13,6.13,0,0,1,.49.92s0-.11,0-.18a1.06,1.06,0,0,0,0,.19.7.7,0,0,1,.06.23c0,.05,0,.09,0,.13a.4.4,0,0,1,0-.12.43.43,0,0,1,0,.05l.06.1c.07.22.11.34,0,.3.26.14.11-.15,0-.73.09.59.38,1,.06.92.41.2.55,0,.3-.65.27.71.5,1.05,0,.87a7.82,7.82,0,0,0,.86.3l-.47-.18.61.22a1.92,1.92,0,0,0,.42.07c-.18-.06-.37-.14-.57-.23l.58.24c.27,0,.29-.12-.29-.53.61.43.7.59.52.61l.37.13c.24,0,.35,0,.22-.09h0a2.79,2.79,0,0,0-.56-.35,5.71,5.71,0,0,1,.66.39c1.44.57,1.51.62,0,.23,1.66.47,1.93.33,1.66.78.3-.43.32-.41.84.45-.48-.84-.38-.67,1,.51-1.29-1.13-.8-.7.94.44-1.51-1-.28-.27.94.41-.72-.91.55-1.09,1.14-1.35a2,2,0,0,1,1.13-1.34,2.32,2.32,0,0,1,1.13-1.35,2.6,2.6,0,0,1,1.13-1.34c.18-.56.73-.91,1.14-1.35s.72-.92,1.13-1.35.76-.89,1.13-1.34c.76-.9,1.51-1.8,2.27-2.69a44.69,44.69,0,0,0,4.69-6.29C264.61,141.61,263.56,143.52,264.74,141.54Zm-27,12.46h0Zm.1,0s0,0,0,0a.1.1,0,0,1,0,.05l0,0A.13.13,0,0,0,237.83,154Zm-.26.72c.4-.33.6-.53.46-.66C238.21,154.14,238,154.35,237.57,154.69Zm.89-.64a.45.45,0,0,1,.13.15Zm.92,2s0,.07.05.1a.31.31,0,0,1-.05-.1Zm0,0,0,0a.18.18,0,0,0,0-.07.49.49,0,0,0,0-.12A1.4,1.4,0,0,1,239.33,156.12Zm0,0h0v-.06Zm-.16-.34a1.1,1.1,0,0,1,.09.14.49.49,0,0,1,0,.12.86.86,0,0,0-.13-.14A.27.27,0,0,0,239.13,155.81Zm-.18.29a.31.31,0,0,0,.15-.17l.13.15a.22.22,0,0,1,0,.08l0,0,0,0h0A.67.67,0,0,1,239,156.1Zm.5.33-.21-.26h0l0,0,.13.18Zm0-.12v0a.91.91,0,0,0-.11-.16l0,0h0a.36.36,0,0,1,0,.09l.11.21A.86.86,0,0,1,239.42,156.31Zm.11.17v0h0Zm0,.1v0h0Zm-.18.24c.07,0,.11,0,.12-.14a.08.08,0,0,0,.05-.08h0C239.61,156.84,239.56,157,239.38,156.82Z"/><path class="cls-5" d="M242.91,159.38l.1,0h0l-.1,0Z"/><path class="cls-5" d="M240.22,157.74h0a1.64,1.64,0,0,0,.07.25h0Z"/><path class="cls-5" d="M239.69,157.21c0,.07.07.12.09.16a1.14,1.14,0,0,1-.09-.16Z"/><path class="cls-5" d="M239.52,156.52l0,0h0s0,0,0,0v0h0v0h0a0,0,0,0,1,0,0h0Z"/><path class="cls-5" d="M239.52,156.55h0a.05.05,0,0,1,0,0h0Z"/><path class="cls-5" d="M239,155.85a.34.34,0,0,0,0-.12h0v0h0v-.08h0v-.11l0-.07,0,.06s0-.06,0-.08h0a.28.28,0,0,1,0,.09h0s0,0,0,0a.25.25,0,0,1,0,.07c0-.05,0-.11,0-.16v0l0,0a1,1,0,0,0-.07-.15.08.08,0,0,0,0,0h0l0-.05h0l0-.08-.09-.12.15.19a.25.25,0,0,0,0-.07,2.92,2.92,0,0,0-.14-.31,1.25,1.25,0,0,1,0,.19l0,0h0l0,0h0l0,0,0,0h0l0,0,.06.18a1,1,0,0,0-.13-.15h0l.13.17h0v0l0,0a0,0,0,0,0,0,0s0,.05,0,.08l0-.06h0l.05.06c0,.05,0,.09,0,.13l-.12-.13h0l.12.15v.1a1.14,1.14,0,0,0-.19-.19h0l.19.21a.88.88,0,0,1,0,.17l0,0,0,0c-.06.2-.21.31-.53.24.33.08.52,0,.6-.17h0Zm-.12-.8,0,0,0,0Zm0,.1,0-.05,0,.06s0,0,0,0Z"/><path class="cls-5" d="M239.91,157.51h0a2.09,2.09,0,0,1-.15-.3Z"/><path class="cls-5" d="M239.77,156.91l0,0,0,.05,0,0Z"/><polygon class="cls-5" points="239.67 156.74 239.67 156.74 239.67 156.75 239.67 156.74 239.67 156.74"/><path class="cls-5" d="M240.1,157.7c0,.09.06.15.07.18s0-.12-.07-.19Z"/><path class="cls-5" d="M238.92,155.28l0,0a.24.24,0,0,1,0-.08l0,0,0,.06Z"/><path class="cls-5" d="M265.25,127.65l-.09-.11c.08.2.16.37.2.48S265.42,128,265.25,127.65Z"/><path class="cls-5" d="M264.34,126.61l.64.37a1.07,1.07,0,0,1,0-.25c-.17-.09-.39-.18-.64-.28A.46.46,0,0,0,264.34,126.61Z"/><path class="cls-5" d="M264.36,126.64h0a6.17,6.17,0,0,0,.41.57l-.16-.13c.2.28.46.57.61.74l0-.09a1.44,1.44,0,0,1,.11.19l0,0h0v0a.88.88,0,0,0-.15-.24,2.25,2.25,0,0,1-.08-.24,3.63,3.63,0,0,0-.32-.25A6.52,6.52,0,0,1,264.36,126.64Z"/><path class="cls-5" d="M266.94,128.06l.32-.15.3-.07.15,0-.17,0-.25.08.1,0h0l-.14.07h-.05l.13-.07h0l-.15.08-.07,0,.07,0-.21.12-.08,0c-.13.08-.17.1-.1.07l.14-.08Zm.22-.13h0l-.14.06Z"/><path class="cls-5" d="M265.39,128.1l0-.08,0,0C265.42,128.32,265.43,128.36,265.39,128.1Z"/><path class="cls-5" d="M265.1,127.48l.06.06A2.51,2.51,0,0,1,265,127h0A2.15,2.15,0,0,0,265.1,127.48Z"/><path class="cls-5" d="M265.31,128v0l-.08-.1a2,2,0,0,1,.12.38v0S265.36,128.18,265.31,128Z"/><path class="cls-5" d="M264.34,126.61h0l0,0Z"/><path class="cls-5" d="M264.36,126.65l0-.05a1.32,1.32,0,0,0,.18.42l.1.07A1.43,1.43,0,0,1,264.36,126.65Z"/><path class="cls-5" d="M267.26,127.77c-.2.09-.2.11,0,.08l.17-.09Z"/><path class="cls-5" d="M267.48,127.65c-.25.09-.32.12-.22.12l.27-.11Z"/><path class="cls-5" d="M269.4,127.66Z"/><path class="cls-5" d="M269,127.43l-.2-.05h-.08Z"/><path class="cls-5" d="M268.36,127.67l-.21,0h.06l.18,0Z"/><path class="cls-5" d="M269,127.67h0Z"/><path class="cls-5" d="M268.81,127.38c-.18,0-.23,0-.13,0h.13Z"/><path class="cls-5" d="M267.86,127.54h.05l.2,0-.1,0h0l.1,0h.05l0,0h0l0,0H268l.05,0h0l-.05,0c-.51,0-.56,0-.13.07h0Z"/><path class="cls-5" d="M268.19,127.35h.15l.28,0-.18,0h0l.19,0h.08l0,0h0l-.28,0h0l.36-.14-.37.14-.12,0,0,0,0,0c-.35,0-.37,0-.05,0h0Z"/><path class="cls-5" d="M263.18,126l.41.17c-.39-.26-.68-.49-.64-.6C262.88,125.61,263,125.76,263.18,126Z"/><path class="cls-5" d="M239,155.14l.09.13v0l-.08-.12Z"/><path class="cls-5" d="M239.13,155.6l0,0v0a.3.3,0,0,1,0,.08v0l0,.07,0,0c0-.05,0-.09,0-.13l0,0h0v0Z"/><path class="cls-5" d="M239.38,155.88a3.14,3.14,0,0,0-.29-.58v0A3.57,3.57,0,0,1,239.38,155.88Z"/><path class="cls-5" d="M239.08,155.54h0Z"/><path class="cls-5" d="M239.09,155.63h0v0Z"/><path class="cls-5" d="M239,155.11l0,0h0Z"/><path class="cls-5" d="M264.33,126.6h0a.43.43,0,0,1,0-.16l-.1,0c-.1-.24-.07-.42.24-.45-.31,0-.34.21-.24.45-.21-.08-.43-.17-.64-.27a8.57,8.57,0,0,0,.74.47Z"/><path class="cls-5" d="M239.05,155.21,239,155s0,.06,0,.09Z"/><path class="cls-5" d="M239,155.11l0,0h0l0,0Z"/><path class="cls-5" d="M239.06,155.27a.52.52,0,0,1,0,.11l0,.06s0-.07,0-.11Z"/><path class="cls-5" d="M263,125.53h0c.36.11.77.24,1.22.4-.44-.17-.85-.3-1.21-.4.09-.08.38-.07,1,.07-.64-.15-.92-.16-1-.08l-.31-.08.31.09Z"/><path class="cls-5" d="M239.48,156.15l0,.12a.09.09,0,0,0,0-.05,2.41,2.41,0,0,0-.08-.25h0Z"/><path class="cls-5" d="M239.09,155.6v0Z"/><path class="cls-5" d="M239.41,156h0l0-.08Z"/><path class="cls-5" d="M259.37,124.14l.18.41c0,.12,0,.23,0,.31s0-.62.07-1.87c0,.69-.05,1.2-.06,1.55,0-.1-.23-.73-.52-2,.11.49.2.89.27,1.22-.09-.16-.38-.65-.87-1.61.29.55.51,1,.68,1.37a3.11,3.11,0,0,0,.2.27C259.33,124,259.35,124.05,259.37,124.14Z"/><path class="cls-5" d="M239.08,155.72v0a.22.22,0,0,0,0-.08h0S239.08,155.7,239.08,155.72Z"/><path class="cls-5" d="M239,155.86l0,0,0-.13h0A.56.56,0,0,1,239,155.86Z"/><path class="cls-5" d="M239.22,155.92s0,0,0-.08h0A.29.29,0,0,1,239.22,155.92Z"/><path class="cls-5" d="M384.12,28.61l-.18-.09h0l.18.08Z"/><path class="cls-5" d="M385,29.82l.15.21c-.05-.14-.1-.26-.15-.37l-.15-.14Q385,29.66,385,29.82Z"/><path class="cls-5" d="M384.34,28.91l.28.2-.15-.27-.28-.14Z"/><path class="cls-5" d="M384.89,29.29l-.06-.14-.2-.19a2.51,2.51,0,0,1,.11.23Z"/><path class="cls-5" d="M384,28.53l-.17-.07.05,0,.18.1Z"/><path class="cls-5" d="M384.89,29.52l.15.14a3.28,3.28,0,0,0-.15-.36l-.15-.11Q384.82,29.34,384.89,29.52Z"/><path class="cls-5" d="M384.58,29.23l.38.5-.15-.29Z"/><path class="cls-5" d="M384.18,28.69l.28.15,0-.1,0,0-.25-.11A.35.35,0,0,0,384.18,28.69Z"/><path class="cls-5" d="M384,28.61l-.17-.08.11.1.22.16Z"/><path class="cls-5" d="M344,23.43a.66.66,0,0,1,0-.28A.63.63,0,0,0,344,23.43Z"/><path class="cls-5" d="M382.4,21.53l.77.31Z"/><path class="cls-5" d="M383.41,23.56c-1.13-1.63-1.06-1.63-.66-.69C382.85,22.86,383.05,23,383.41,23.56Z"/><path class="cls-5" d="M382.25,21.86l1,.84C382.61,22.15,382.32,21.88,382.25,21.86Z"/><path class="cls-5" d="M382.54,20.28l.52-.18Z"/><path class="cls-5" d="M383.19,25.22l-.07,0h0Z"/><path class="cls-5" d="M344.33,18c-.05,1.18.26,1.43,0,0Z"/><path class="cls-5" d="M382.75,22.87h0c.06.13.13.26.19.41Z"/><path class="cls-5" d="M383.19,25.22c.11,0,.22.06.35.24C383.41,25.28,383.29,25.21,383.19,25.22Z"/><path class="cls-5" d="M343.91,22.36c.13.31.31.4.49.36v0C344.21,22.74,344,22.65,343.91,22.36Z"/><path class="cls-5" d="M383.71,25.8a.67.67,0,0,0-.43.12h0A.61.61,0,0,1,383.71,25.8Z"/><path class="cls-5" d="M344.87,21.78s0,.1,0,.14h0Z"/><path class="cls-5" d="M343.93,21.89a.65.65,0,0,0,.6.27l0,0A.66.66,0,0,1,343.93,21.89Z"/><path class="cls-5" d="M344,23.43a.1.1,0,0,0,.05.06h0A.09.09,0,0,1,344,23.43Z"/><path class="cls-5" d="M345.24,21.29v.06h0Z"/><path class="cls-5" d="M345,21.71a1,1,0,0,1,0,.17h0A1,1,0,0,0,345,21.71Z"/><path class="cls-5" d="M344.76,19.68l-.59-1C344.67,19.52,344.8,19.83,344.76,19.68Z"/><path class="cls-5" d="M345.06,21.65a1.23,1.23,0,0,1,0,.19h0A1.09,1.09,0,0,0,345.06,21.65Z"/><path class="cls-5" d="M384.75,29l-.16-.1v0l.06.06.11.06Z"/><path class="cls-5" d="M385,29.34l-.07-.05h0Z"/><path class="cls-5" d="M385.09,29.71l0-.05h0Z"/><path class="cls-5" d="M384.18,28.69,384,28.6h0l.17.09Z"/><path class="cls-5" d="M384.76,29l-.1,0,.15.17Z"/><path class="cls-5" d="M384.74,29.19h0l-.12-.08h0Z"/><path class="cls-5" d="M383.51,28.18l1.16.29Z"/><path class="cls-5" d="M384.81,29.44l.08.08h0l-.08-.09Z"/><path class="cls-5" d="M384.63,29.12l-.27-.18.2.26.25.23C384.74,29.32,384.68,29.21,384.63,29.12Z"/><path class="cls-5" d="M384.34,28.91l-.16-.12,0,.05.14.1Z"/><path class="cls-5" d="M384.05,28.49l.33.22C384.07,28.41,384,28.34,384.05,28.49Z"/><path class="cls-5" d="M384.72,28.89v0l-.14-.06v0l.16.11Z"/><path class="cls-5" d="M384.57,28.81l.14.06C384.47,28.49,384.43,28.47,384.57,28.81Z"/><path class="cls-5" d="M383.84,28.3l.84.24Z"/><path class="cls-5" d="M383.56,28.33Z"/><path class="cls-5" d="M384.07,28.53a.56.56,0,0,1,.05.08l.25.11Z"/><path class="cls-5" d="M385.4,29.73l-.33-.35v0Q385.24,29.55,385.4,29.73Z"/><path class="cls-5" d="M385.72,30.56l-.57-1,0,.07Z"/><path class="cls-5" d="M344.33,18v0l0-.16Z"/><path class="cls-5" d="M344.92,22.34l0,.06,0,0,0-.06Z"/><path class="cls-5" d="M345.3,21.66v0h0Z"/><path class="cls-5" d="M344.32,21.91a1.08,1.08,0,0,0,.42.08v0h.11a.13.13,0,0,1,0-.06.75.75,0,0,1-.55,0l0,0s0,0,0,0a1.06,1.06,0,0,1-.27-.18,1.1,1.1,0,0,0,.28.18.81.81,0,0,0,.19.24l.14,0A1,1,0,0,1,344.32,21.91Z"/><path class="cls-5" d="M345.28,21.65c0,.06,0,.12-.07.19h0a.7.7,0,0,0,.06-.19Z"/><path class="cls-5" d="M345.08,21.79h0a.88.88,0,0,0,0-.17C345.09,21.67,345.09,21.73,345.08,21.79Z"/><path class="cls-5" d="M344.93,22l0,0a.13.13,0,0,1,0-.06l-.09,0a.13.13,0,0,0,0,.06Z"/><path class="cls-5" d="M345,21.89,345,22h0l.07,0a.13.13,0,0,0,0-.06h0a.17.17,0,0,1,0,.07h0l0,0s0,0,0-.06h0a.13.13,0,0,1,0,.06l.05-.09h0a1.8,1.8,0,0,0,.08-.21l.1,0h0l0-.06,0,0h0l-.1.07v0s0,0,0,0l-.1,0h0a1.62,1.62,0,0,1,0,.2v0h0l-.08,0s0,0,0,.06Zm.08-.28.1,0a.78.78,0,0,1-.11.2v0h0v0h0A1.23,1.23,0,0,0,345.09,21.61Z"/><path class="cls-5" d="M345.29,21.55a1.77,1.77,0,0,1-.17.24,1.07,1.07,0,0,0,.16-.14S345.29,21.58,345.29,21.55Z"/><path class="cls-5" d="M344.9,21.63H345a1.2,1.2,0,0,0,.21-.19.25.25,0,0,1,0-.08.76.76,0,0,1-.49.26,1.7,1.7,0,0,1-.66-.25,1.72,1.72,0,0,0,.65.25,1,1,0,0,1-.72-.19.76.76,0,0,0,1,.2Z"/><path class="cls-5" d="M345.22,21.45v0h0Z"/><path class="cls-5" d="M345.3,21.62v-.09h0a.31.31,0,0,1,0,.1Z"/><path class="cls-5" d="M344.67,22.13l.06,0v0h0v0l.11-.05,0,.12h0l0-.14.09-.07h0l-.08.05v0h0v0l-.11.05a.22.22,0,0,0,0-.08h0a.22.22,0,0,1,0,.08l-.09,0v0h0v0h0v0Z"/><path class="cls-5" d="M345.05,22.15l0,0h0Z"/><path class="cls-5" d="M344.67,22.13l0,0v.08h.08a.29.29,0,0,1,0-.09Z"/><polygon class="cls-5" points="344.95 21.95 344.95 21.94 344.95 21.94 344.94 21.95 344.95 21.95"/><polygon class="cls-5" points="344.94 21.96 344.94 21.95 344.94 21.95 344.94 21.96"/><path class="cls-5" d="M384.22,28.84l-.14-.09.33.31Z"/><path class="cls-5" d="M344.73,22.15s0,.06,0,.09h.08a.31.31,0,0,0,0-.08Z"/><path class="cls-5" d="M345.2,21.54a.29.29,0,0,0,0-.09A.29.29,0,0,1,345.2,21.54Z"/><path class="cls-5" d="M343.6,27.41a2,2,0,0,0-.07-.23v0a2.17,2.17,0,0,1,.07.24Z"/><path class="cls-5" d="M343.48,27.2c.08.21.15.39.22.53,0-.1-.07-.21-.11-.33A1.11,1.11,0,0,1,343.48,27.2Z"/><path class="cls-5" d="M344.53,22.16a.24.24,0,0,0,.09.06s0,0,0-.07Z"/><path class="cls-5" d="M343.28,26.65a4.14,4.14,0,0,0,.2.55q-.08-.19-.15-.42S343.3,26.7,343.28,26.65Z"/><path class="cls-5" d="M343.7,27.73c0,.09.06.16.08.23l-.06-.18Z"/><path class="cls-5" d="M344.38,23.09a1,1,0,0,1-.09.15l.06-.08Z"/><path class="cls-5" d="M343.78,28c.26.74.42,1,.17.05C344,28.29,343.89,28.23,343.78,28Z"/><path class="cls-6" d="M371.29,34.64a3.18,3.18,0,0,0,.93.16l15.69,1.56c-.31-.68-.62-1.36-.93-2.06-.1-.23-.2-.46-.31-.69s0-.89-.3-.7c.11-.53-1.3-3.92-.3-.71-.37-1.18-.69-2.06-.89-2.55l-.17-.29c.07.26.31.94.77,2.14-.23-.59-.42-1.07-.59-1.47l-.15-.19.46.94c-.2-.4-.37-.74-.53-1s-.37-.47-.52-.65l-.5-.44-.55-.36-.2-.1c-.19-.09-.24-.13-.14-.12l.78.22-.72-.2.39.08-.48-.12c-.57-.18-.13-.17,1.48-.06-2.45-.16-2.54-.18-.09-.28-2.45.1-2.56.07-.14-.45-2.42.52-2.48.51-.11-.37-2.37.88-2.45.85-.15-.31-1.56.79-2,1-1.5.61.26-.14.65-.35,1.2-.62l-1.14.57.57-.45c0,.1.06.09.11-.09l.69-.53-.69.52a1.37,1.37,0,0,0,.07-.29,1.33,1.33,0,0,0-.05-.38,1,1,0,0,0-.2.17c0,.25.06.43.06.49a.28.28,0,0,0,0,.1l-.8.57c-.28.14-.3.1-.06-.13a1.29,1.29,0,0,1,.09-.15c.08-.13.2-.77.39-1.25a15.08,15.08,0,0,1,.05-1.7c-.14-.61-.22-1.09-.09-1.15-.32-.69-.56-1-.48-1-.86-.69-.89-.74.15-.33-1.49-.6-1.36-.63.7-.55-2.17-.08-2.35-.1-.56-.7-1.08.36-1.4.47-1,.18a3.24,3.24,0,0,1,.47-.56l.31-.56A19.56,19.56,0,0,0,382.8,17c-.48,2.66-.21-.13-.37-.91a2.61,2.61,0,0,0-1-1,3.4,3.4,0,0,0-1.25-.4,7.29,7.29,0,0,0-1.31-.07l-1.76,0c-5.28.05-2.4.18-7.68.24-5,.05-5.05-1-10.06-1.15-4.05-.11-9.07-1.57-13.22-1.21a12,12,0,0,0-1.73.27c.12.51-.23,1.64.25,1.42-.43,1-1.05,2.52,0,1.41-1.06,1.52-.55,3.38-.21,1.42a8.66,8.66,0,0,0-.11,1,16.84,16.84,0,0,0,.43,1.67,1.8,1.8,0,0,1,.24.44c0,.12-.28-.16-1-.78.7.62,1.08,1,1.1,1s-.32-.24-1.06-.82c.74.58,1.09.94,1.05.89s-.16,0-.41-.16-.41-.27-.69-.43c.26.15.49.3.67.42l-.79-.45c.68.37,1.1.7,1.21.75l0,0s0,0,0,.05c-.19-.09-.56-.32-1.12-.58.55.25.91.49,1.1.59a4.25,4.25,0,0,1-1.16-.33,4.93,4.93,0,0,0,1.22.36l0,0c-.13.07-.54-.08-1.25-.31.79.25,1.23.44,1.3.31a0,0,0,0,0,0,0c0,.25-.47.13-1.34-.11.87.25,1.33.43,1.33.22,0,.2-.32.16-.91,0l-.36-.1.26.08-.34-.09.38.1c.7.23,1.12.41,1.14.19a.57.57,0,0,1-.15.4.22.22,0,0,0,0,.08,1.32,1.32,0,0,0,.16-.25l0,.06a.79.79,0,0,1-.08.23.35.35,0,0,0,.1-.2l0,.07a.37.37,0,0,1-.16.19h0v.09a1,1,0,0,0,.16-.27l0,.08a.9.9,0,0,1-.08.23l-.14.14c0-.05,0-.1,0-.14s0,.09,0,.14l-.06,0a1.51,1.51,0,0,1-.13.29h0a1.46,1.46,0,0,1-.17.24,3,3,0,0,1-.34.67h0l-.16.23-.14.16.1-.12-.12.11,0,0a1.72,1.72,0,0,0,.17-.19,1,1,0,0,0,.09-.15h0a3.77,3.77,0,0,0,.27-.57l-.12.11,0,0a4.51,4.51,0,0,1-.22.44h0a3.45,3.45,0,0,0,.14-.34l-.05.06c0,.09-.09.18-.14.27h0l.09-.21h0c0-.05,0-.1,0-.14l.06,0-.05.12.06-.09,0,0h0v0a0,0,0,0,1,0,0s0,0,0-.06l0,0,0,.06-.05,0v-.05h0l0,0-.11,0v0h0v0c-.19,0-.37-.05-.48-.35a.59.59,0,0,0,.25.35.49.49,0,0,0,.11.26c-.19.09-.36,0-.44-.37.09.4.26.48.44.39a3,3,0,0,1-.08.32l0,0a.08.08,0,0,0,0,0,.08.08,0,0,1,0,0l-.1.1h0l.06-.07a.14.14,0,0,1,0,.06h0a.14.14,0,0,0,0-.06l0,0s0,.05,0,.08,0-.06,0-.08a.35.35,0,0,0,.05-.08c0,.05,0,.09,0,.13v0h0l0,.06h0v-.05h0v.05a.19.19,0,0,1-.1,0l.07-.06h0a.09.09,0,0,1-.05,0s-.06-.14,0-.31a.51.51,0,0,0,0,.32.12.12,0,0,1-.16,0,1.21,1.21,0,0,1,0-.18c0,.07,0,.13,0,.18a.64.64,0,0,1-.07-.41.66.66,0,0,0,.08.44c0,.24.1.25.23.12-.25.37-.46.46-.32-.14a1,1,0,0,0,0,.5l0-.06,0,.06c.06.11.2,0,.35-.26h0c-.2.41-.4.66-.44.61h0s0-.08,0-.18a.58.58,0,0,0-.06.26c-.06.14,0,.2,0,.18l.18-.24a2.22,2.22,0,0,0-.17.24s0,0,.05,0A2.44,2.44,0,0,0,344,24a1.91,1.91,0,0,1-.26.45c-.11.15-.18.17-.13,0,0,.06.07,0,.15-.07a2.34,2.34,0,0,0,.26-.45s0-.08.05-.13a.3.3,0,0,1,0,.1.75.75,0,0,0,.07-.18v0l0,0,0-.13h0s0,.08,0,.13h0c0,.08-.07.16-.1.23a2.61,2.61,0,0,1-.42.77c-.07.12-.12.15-.09.09-.09.15-.08.2,0,.08s.37-.48.62-1.09a8.8,8.8,0,0,1-.45,1l.13-.14-.13.15a.77.77,0,0,1-.15.18l-.08.11.07-.1,0,0a.37.37,0,0,1,0,.1c-.13.19-.21.3-.25.17,0,.3.19,0,.6-.41-.41.42-.58.92-.69.6.08.45.29.46.69-.15-.4.64-.54,1-.72.49a8.72,8.72,0,0,0,.28.87c0-.15-.1-.32-.14-.49.06.2.12.42.19.62a2.66,2.66,0,0,0,.19.38c0-.18-.1-.38-.15-.59.05.21.11.41.16.61s.27.15.24-.56c0,.75,0,.92-.17.79l.12.37c.11.21.19.29.21.12h0a3.5,3.5,0,0,0-.06-.66A7,7,0,0,1,344,28c.41,1.5.41,1.59-.17.17.63,1.61.9,1.74.38,1.8.53,0,.52,0,.14.94.39-.89.31-.71.21,1.11.12-1.71.08-1.06.21,1-.08-1.82,0-.38.24,1,.29-1.13,1.2-.22,1.75.09a2,2,0,0,1,1.76.1,2.3,2.3,0,0,1,1.76.1,2.52,2.52,0,0,1,1.75.09,4.23,4.23,0,0,1,1.76.1c.59,0,1.17,0,1.75.1s1.18.06,1.76.1l3.51.19a44.74,44.74,0,0,0,7.85,0C371.17,34.58,369,34.89,371.29,34.64ZM345.11,20.53h0Zm.09.06s0,0,0,0a.14.14,0,0,1,0,.06l-.05,0S345.19,20.61,345.2,20.59Zm-.73.23c.5.12.78.16.8,0C345.29,21,345,21,344.47,20.82Zm1,.32a.42.42,0,0,1,0,.2A.69.69,0,0,0,345.5,21.14Zm-1.06,2s0,.07-.05.1a.47.47,0,0,1,.05-.1Zm-.06,0,0,0a.24.24,0,0,1,0-.08.38.38,0,0,0,.09-.09C344.43,23,344.4,23,344.38,23.09Zm-.05,0a.05.05,0,0,1,0,0l.06,0S344.34,23,344.33,23.06Zm.18-.32-.06.15-.09.08c0-.06,0-.12,0-.18Zm-.34,0a.29.29,0,0,0,.22,0,1.29,1.29,0,0,1,0,.19l-.07,0a.08.08,0,0,0,0,0,.08.08,0,0,1,0,0h0A.49.49,0,0,1,344.17,22.76Zm0,.6a3,3,0,0,0,.08-.32h0s0,0,0,0,0,.14-.07.22Zm.08-.09v0l.06-.19,0,0h0a.43.43,0,0,1,0,.07l-.11.22S344.27,23.31,344.28,23.27Zm-.07.18h0l0,0h0Zm-.06.09,0,0v0Zm-.3,0c0,.06.11.06.18,0a.09.09,0,0,0,.1,0v0C344,23.74,343.86,23.76,343.85,23.54Z"/><path class="cls-5" d="M343.93,27.9a.43.43,0,0,1,0,.11h0l0-.1Z"/><path class="cls-5" d="M343.62,24.77h0l-.16.2h0A1.19,1.19,0,0,1,343.62,24.77Z"/><path class="cls-5" d="M343.72,24l-.07.18.07-.18Z"/><path class="cls-5" d="M344.17,23.48s0,0,0,.05h0s0,0,0-.05h0Z"/><path class="cls-5" d="M344.15,23.49Z"/><path class="cls-5" d="M344.41,22.68a.28.28,0,0,0,.12,0h0l.06,0h0v0l.05,0a.25.25,0,0,1,0-.07l0,.06.06-.05h0l-.06.07h0l0,0a.21.21,0,0,0,0,.06,1.47,1.47,0,0,0,.1-.13l0,0v0a.64.64,0,0,0,.08-.14l0-.05h0s0,0,0-.05h0s0-.06,0-.09a.58.58,0,0,0,.05-.14l-.06.23.07,0a2.1,2.1,0,0,0,.15-.3l-.16.09a.08.08,0,0,0,0,0h0v0h0l0,0s0,0,0-.05h0s0,0,0,.06-.07.11-.1.16a1.42,1.42,0,0,0,0-.2h0a1.6,1.6,0,0,1-.05.21h0l0,0s0,0,0,0h0l-.05.06s0,0,0-.06h0s0,.05,0,.08l-.09.09,0-.18h0a1.33,1.33,0,0,1,0,.19l-.08.07a2.56,2.56,0,0,0,.05-.27h0a2.33,2.33,0,0,1-.05.28.6.6,0,0,1-.15.09v0c-.19.07-.38,0-.51-.28.14.31.32.41.5.37v0h0Zm.57-.57,0,0s0,0,0,0Zm-.07.05h0l0,.05,0,0A.25.25,0,0,1,344.91,22.16Z"/><path class="cls-5" d="M343.62,24.38h0a2.07,2.07,0,0,1,.15-.3A2.07,2.07,0,0,0,343.62,24.38Z"/><path class="cls-5" d="M344,23.91v0l0,0v0A.08.08,0,0,0,344,23.91Z"/><polygon class="cls-5" points="344.09 23.73 344.09 23.73 344.08 23.73 344.09 23.73 344.09 23.73"/><path class="cls-5" d="M343.58,24.64a.56.56,0,0,0-.1.18,1,1,0,0,1,.11-.18Z"/><path class="cls-5" d="M344.8,22.25h0l.05-.06v0h-.07A.31.31,0,0,1,344.8,22.25Z"/><path class="cls-5" d="M382.71,26.7a1.06,1.06,0,0,0,0-.14c-.11.19-.19.35-.26.45S382.53,27.05,382.71,26.7Z"/><path class="cls-5" d="M383,25.35c0,.27.06.52.08.73l.2-.16c0-.19-.09-.42-.16-.68A.6.6,0,0,0,383,25.35Z"/><path class="cls-5" d="M383,25.38h0c-.07.2-.14.43-.2.67v-.21c-.1.33-.17.71-.22.94l.05-.08a1.35,1.35,0,0,1-.08.19s0,0,0,.05h0a1,1,0,0,0,.1-.27c.05-.06.09-.13.14-.2s0-.25,0-.41A6.22,6.22,0,0,1,383,25.38Z"/><path class="cls-5" d="M383.4,28.3l.31.16.24.2.13.09a1.36,1.36,0,0,1-.12-.12l-.21-.15.1.05,0,0-.14-.07-.05,0,.14.06v0l-.15-.06-.06-.05.05,0-.21-.09-.09,0c-.14-.06-.18-.08-.11,0l.15.07Zm.23.09,0,0-.14-.07Z"/><path class="cls-5" d="M382.43,27.08l.05-.07s0,0,0-.05C382.28,27.24,382.25,27.27,382.43,27.08Z"/><path class="cls-5" d="M382.75,26.48a.19.19,0,0,1,0,.08,3,3,0,0,1,.34-.46v0A3.19,3.19,0,0,0,382.75,26.48Z"/><path class="cls-5" d="M382.5,26.93s0,0,0,0a.81.81,0,0,0,0-.11,2.27,2.27,0,0,1-.23.32l0,0S382.35,27.11,382.5,26.93Z"/><path class="cls-5" d="M383,25.35v0l0,.05Z"/><path class="cls-5" d="M383,25.39l0-.06a1.36,1.36,0,0,0-.23.4v.12A1.81,1.81,0,0,1,383,25.39Z"/><path class="cls-5" d="M383.82,28.38c-.19-.11-.21-.09-.05.06l.17.08A1,1,0,0,1,383.82,28.38Z"/><path class="cls-5" d="M384.05,28.49c-.22-.15-.29-.19-.23-.11l.25.15Z"/><path class="cls-5" d="M385.19,30h0l0,0Z"/><path class="cls-5" d="M385.15,29.58a1.59,1.59,0,0,0-.08-.18l-.05-.06Z"/><path class="cls-5" d="M384.56,29.2l-.15-.14,0,0a1.59,1.59,0,0,0,.13.13Z"/><path class="cls-5" d="M385,29.73v0l.07.09v0Z"/><path class="cls-5" d="M385.07,29.38c-.08-.17-.11-.2-.08-.1v0A.23.23,0,0,0,385.07,29.38Z"/><path class="cls-5" d="M384.37,28.72h.05l.14.14-.1-.05h0l.1.05.06.07v0l0,0h0l0,0,0,0,0,0h0l0,0,.05,0h0l-.05,0c-.34-.38-.35-.43-.13-.06h0l0,0Z"/><path class="cls-5" d="M384.71,28.87v0l0,.07h0l0,0,0,0,0,0h0l0,0a2.22,2.22,0,0,0,.15.23,1.59,1.59,0,0,1-.13-.13l0,0,.13.13.05.08,0,0,0,0,0,0h0v0a2.18,2.18,0,0,1-.14-.25h0l0,0,.33.2-.33-.21-.06-.1h0q-.25-.48-.06,0Z"/><path class="cls-5" d="M382.82,24c0,.14.07.28.1.43,0-.47,0-.84.11-.87C382.92,23.57,382.85,23.75,382.82,24Z"/><path class="cls-5" d="M345,22.21a.88.88,0,0,0-.05.15l0,0c0-.05,0-.1,0-.14Z"/><path class="cls-5" d="M344.67,22.61s0,0,0-.06h0a.22.22,0,0,1-.05.08h0l0,0,0,.06v0a.44.44,0,0,1,.08-.11v0h0v0Z"/><path class="cls-5" d="M344.6,23a3.14,3.14,0,0,0,.29-.58l0,0A4.15,4.15,0,0,1,344.6,23Z"/><path class="cls-5" d="M344.7,22.54v0h0v0Z"/><path class="cls-5" d="M344.63,22.6h0l0,0Z"/><path class="cls-5" d="M345,22.17l0,0h0Z"/><path class="cls-5" d="M383,25.33h0a.47.47,0,0,1,.12-.09l0-.1c.14-.23.31-.31.52-.08-.21-.23-.38-.15-.52.08,0-.22-.11-.45-.17-.68,0,.27,0,.58.08.87Z"/><path class="cls-5" d="M344.94,22.31a.91.91,0,0,0,.11-.16l-.07,0S345,22.27,344.94,22.31Z"/><path class="cls-5" d="M345,22.19v0h0l0,0Z"/><path class="cls-5" d="M344.9,22.36l-.08.08s0,0,0,.06l.07-.08Z"/><path class="cls-5" d="M383,23.59h0c.13.35.27.76.41,1.21-.13-.45-.27-.85-.41-1.21.12,0,.29.27.52.81-.26-.59-.42-.82-.52-.81l-.12-.3a2.65,2.65,0,0,1,.11.3Z"/><path class="cls-5" d="M344.44,23.22l-.07.1s0,0,0,0l.14-.22h0Z"/><path class="cls-5" d="M344.65,22.58l0,0h0Z"/><path class="cls-5" d="M344.55,23.06h0a.43.43,0,0,0,0-.07Z"/><path class="cls-5" d="M382,19.9c-.13.24-.21.36-.22.38l-.25.18s.51-.35,1.54-1.07l-1.28.88c.07-.08.45-.62,1.26-1.59-.32.38-.59.7-.82.95.08-.17.3-.69.77-1.66-.27.56-.5,1-.69,1.37-.05.16-.08.26-.1.31Z"/><path class="cls-5" d="M344.55,22.64v0l.07,0h0Z"/><path class="cls-5" d="M344.41,22.69v0l.12,0v0A.28.28,0,0,1,344.41,22.69Z"/><path class="cls-5" d="M344.48,22.87s0,0,0-.05h0Z"/></g></g></svg>